<svg id="svg" version="1.1" xmlns="http://www.w3.org/2000/svg" xmlns:xlink="http://www.w3.org/1999/xlink" width="24" height="24" viewBox="0, 0, 24,24"><g id="svgg"><path id="path0" d="M302.362 57.524 C 295.013 65.182,285.940 74.675,282.200 78.619 C 278.460 82.564,274.824 86.387,274.121 87.115 L 272.842 88.438 271.321 87.443 C 256.199 77.544,237.255 70.460,218.800 67.804 C 218.250 67.725,216.180 67.425,214.200 67.137 C 207.166 66.116,187.262 66.536,180.600 67.847 C 180.160 67.933,177.730 68.366,175.200 68.808 C 170.318 69.661,169.866 69.765,164.124 71.354 C 152.662 74.527,140.413 79.933,130.250 86.305 L 128.701 87.277 126.450 85.108 C 125.213 83.915,117.995 77.013,110.411 69.770 C 102.828 62.526,93.671 53.765,90.062 50.300 C 86.454 46.835,83.366 44.000,83.201 44.000 C 83.036 44.000,79.224 47.825,74.731 52.500 C 70.238 57.175,61.734 66.026,55.833 72.169 L 45.103 83.337 48.252 86.374 C 51.789 89.785,78.236 115.104,85.114 121.662 L 89.584 125.925 87.324 129.662 C 81.987 138.487,75.804 152.208,74.012 159.200 C 73.759 160.190,73.293 161.720,72.978 162.600 C 72.265 164.589,69.774 176.690,69.190 181.000 C 68.952 182.760,68.653 188.830,68.525 194.488 C 68.237 207.214,68.660 213.083,70.633 223.800 C 73.005 236.678,78.599 251.482,85.975 264.400 L 88.373 268.600 86.082 271.000 C 84.822 272.320,81.453 275.830,78.595 278.800 C 69.520 288.232,63.887 294.139,60.844 297.417 C 59.218 299.167,54.447 304.200,50.242 308.600 C 46.037 313.000,42.376 316.884,42.107 317.230 C 41.689 317.769,42.627 318.817,48.509 324.392 C 52.299 327.984,57.470 332.925,60.000 335.373 C 62.530 337.820,68.352 343.411,72.937 347.797 L 81.275 355.771 83.515 353.386 C 84.748 352.074,87.566 349.105,89.778 346.788 C 91.990 344.472,96.768 339.432,100.395 335.588 C 107.995 327.536,113.964 321.291,121.517 313.492 L 126.851 307.985 130.925 310.374 C 133.166 311.687,135.181 312.906,135.402 313.081 C 136.412 313.883,147.994 319.403,151.224 320.622 C 159.647 323.802,164.906 325.356,174.200 327.411 C 204.119 334.027,244.542 326.765,268.800 310.417 C 269.790 309.749,270.793 309.203,271.030 309.202 C 271.266 309.201,276.680 314.195,283.060 320.300 C 289.440 326.405,297.696 334.280,301.408 337.800 C 305.119 341.320,310.734 346.663,313.886 349.674 L 319.616 355.148 325.108 349.476 C 336.459 337.755,351.482 321.999,355.728 317.361 L 357.595 315.322 355.088 312.961 C 338.199 297.053,326.352 285.758,315.683 275.390 C 313.198 272.975,310.993 270.940,310.783 270.867 C 310.127 270.638,310.334 270.137,312.659 266.314 C 319.688 254.757,325.851 239.387,328.423 227.000 C 328.880 224.800,329.336 222.640,329.438 222.200 C 331.557 212.969,332.106 194.402,330.625 182.000 C 330.136 177.907,327.405 163.856,326.958 163.132 C 326.862 162.977,326.239 160.994,325.573 158.725 C 324.908 156.456,324.101 154.033,323.781 153.340 C 323.462 152.646,323.200 151.962,323.200 151.819 C 323.200 150.617,317.664 138.861,314.295 132.910 C 312.772 130.220,311.588 127.845,311.663 127.631 C 311.794 127.261,318.147 120.474,327.226 111.007 C 329.550 108.583,335.580 102.280,340.626 97.000 C 345.672 91.721,351.142 86.000,352.782 84.287 L 355.765 81.173 353.582 79.053 C 348.952 74.554,339.911 65.930,333.399 59.800 C 329.660 56.280,324.328 51.195,321.552 48.500 C 318.776 45.805,316.329 43.600,316.114 43.600 C 315.899 43.600,309.711 49.866,302.362 57.524 M209.355 117.224 C 224.724 119.011,238.830 124.685,250.400 133.734 C 255.856 138.000,258.889 140.881,262.684 145.400 C 269.329 153.312,273.995 161.386,277.737 171.445 C 278.432 173.311,280.520 181.490,281.147 184.800 C 282.652 192.741,282.560 205.731,280.947 213.200 C 280.638 214.630,280.214 216.651,280.004 217.691 C 277.211 231.581,266.791 248.878,255.032 259.143 C 247.301 265.892,238.059 271.607,230.400 274.375 C 229.630 274.653,228.640 275.026,228.200 275.204 C 226.927 275.719,225.951 276.033,223.600 276.684 C 207.695 281.092,192.716 281.016,176.940 276.448 C 174.052 275.611,173.182 275.293,170.104 273.943 C 169.172 273.535,168.308 273.200,168.186 273.200 C 167.555 273.200,159.751 269.026,156.709 267.061 C 142.777 258.064,131.315 244.403,125.447 229.800 C 124.829 228.260,124.172 226.640,123.988 226.200 C 123.803 225.760,123.462 224.770,123.230 224.000 C 122.997 223.230,122.551 221.786,122.239 220.790 C 121.616 218.806,120.313 212.255,119.633 207.693 C 114.485 173.136,138.424 133.373,171.000 122.373 C 171.880 122.076,172.780 121.723,173.000 121.589 C 173.220 121.454,174.210 121.111,175.200 120.826 C 176.190 120.541,177.450 120.157,178.000 119.973 C 178.861 119.686,180.423 119.307,185.600 118.133 C 190.757 116.963,203.062 116.492,209.355 117.224 M171.200 153.137 C 150.297 164.960,148.779 165.873,147.770 167.240 L 146.800 168.555 146.800 184.278 L 146.800 200.000 148.327 201.500 C 149.168 202.325,150.743 203.472,151.827 204.048 C 153.537 204.957,156.502 206.662,169.000 213.926 C 176.845 218.486,176.359 218.646,202.800 202.794 C 205.990 200.882,209.410 198.862,210.400 198.306 C 211.390 197.751,214.540 195.969,217.400 194.348 C 224.305 190.434,225.166 190.394,231.200 193.705 C 245.124 201.348,244.154 200.073,244.335 210.962 C 244.532 222.825,244.671 222.536,236.373 227.459 C 225.998 233.614,224.854 233.898,220.306 231.452 C 213.931 228.024,212.130 227.029,211.200 226.423 C 210.650 226.065,209.681 225.510,209.047 225.190 C 206.239 223.774,205.205 220.951,205.202 214.694 L 205.200 210.389 203.700 211.341 C 202.875 211.864,200.715 213.153,198.900 214.203 L 195.600 216.114 195.600 221.477 C 195.600 229.616,194.626 228.561,210.400 237.502 C 211.170 237.939,214.230 239.694,217.200 241.402 C 223.484 245.017,225.474 245.493,228.289 244.056 C 229.698 243.338,240.234 237.342,245.000 234.547 C 245.880 234.031,247.667 233.025,248.970 232.311 C 254.805 229.117,254.795 229.154,254.798 211.508 C 254.801 193.747,255.282 195.166,247.800 190.878 C 246.480 190.121,244.815 189.164,244.100 188.751 C 243.385 188.338,242.182 187.650,241.426 187.221 C 240.670 186.793,239.324 185.983,238.434 185.421 C 237.544 184.860,236.744 184.400,236.657 184.400 C 236.570 184.400,234.460 183.230,231.970 181.800 C 226.849 178.860,224.243 178.397,221.512 179.943 C 220.337 180.607,215.858 183.257,209.600 186.988 C 208.390 187.710,203.800 190.328,199.400 192.808 C 188.899 198.724,189.560 198.343,185.200 201.003 C 176.584 206.259,176.413 206.262,167.800 201.313 C 156.297 194.703,156.800 195.503,156.800 183.800 C 156.800 173.163,156.965 172.755,162.534 169.640 C 163.230 169.250,164.700 168.422,165.800 167.800 C 174.899 162.649,176.810 162.183,180.400 164.242 C 181.390 164.810,183.730 166.096,185.600 167.100 C 187.470 168.104,189.450 169.219,190.000 169.577 C 190.550 169.936,191.526 170.492,192.169 170.814 C 194.735 172.099,195.600 174.378,195.600 179.855 C 195.600 185.688,195.651 185.745,199.000 183.630 C 200.419 182.733,201.663 182.000,201.764 182.000 C 201.864 182.000,202.859 181.433,203.973 180.740 L 206.000 179.480 206.000 174.527 C 206.000 166.757,206.158 166.949,194.200 160.178 C 193.320 159.680,189.455 157.456,185.611 155.236 C 176.950 150.234,176.460 150.163,171.200 153.137 " stroke="none" fill="#fbfbfb" fill-rule="evenodd"></path><path id="path1" d="M70.800 0.821 C 65.462 1.627,62.173 2.322,61.200 2.849 C 60.870 3.028,59.160 3.561,57.400 4.034 C 55.640 4.506,54.110 5.018,54.000 5.172 C 53.890 5.325,52.630 5.879,51.200 6.403 C 48.160 7.518,38.400 12.702,38.400 13.203 C 38.400 13.392,37.995 13.673,37.500 13.828 C 36.321 14.197,34.195 15.788,29.249 20.000 C 23.174 25.173,15.560 33.816,13.934 37.385 C 13.680 37.943,13.334 38.400,13.166 38.400 C 12.574 38.400,7.560 47.907,6.337 51.346 C 5.857 52.696,5.313 54.001,5.127 54.247 C 4.941 54.494,4.320 56.204,3.748 58.047 C -0.335 71.185,0.000 58.502,0.000 200.086 C -0.000 341.955,-0.367 328.317,3.821 342.200 C 4.418 344.180,5.028 345.890,5.176 346.000 C 5.324 346.110,5.842 347.304,6.327 348.654 C 7.575 352.125,12.580 361.600,13.166 361.600 C 13.334 361.600,13.680 362.057,13.934 362.615 C 16.547 368.351,33.012 384.744,37.632 386.210 C 38.054 386.344,38.400 386.608,38.400 386.797 C 38.400 387.416,47.399 392.192,51.200 393.590 C 52.630 394.116,54.160 394.757,54.600 395.015 C 55.040 395.273,56.660 395.806,58.200 396.199 C 59.740 396.592,61.204 397.073,61.453 397.267 C 62.069 397.747,67.028 398.669,72.911 399.398 C 78.899 400.139,320.257 400.324,325.871 399.592 C 332.280 398.756,337.036 397.901,338.200 397.375 C 338.860 397.077,340.724 396.472,342.342 396.030 C 343.961 395.589,345.491 395.065,345.742 394.866 C 345.994 394.667,346.920 394.279,347.800 394.004 C 351.135 392.962,360.384 388.073,361.913 386.545 C 362.212 386.245,362.600 386.000,362.774 386.000 C 363.222 386.000,368.109 382.352,370.969 379.882 C 375.948 375.582,382.129 368.678,385.303 363.871 C 385.910 362.952,386.684 361.840,387.024 361.400 C 388.786 359.120,392.995 350.914,394.000 347.800 C 394.284 346.920,394.643 346.110,394.797 346.000 C 394.952 345.890,395.654 343.910,396.358 341.600 C 400.314 328.618,399.987 341.354,399.994 200.183 C 400.001 58.263,400.352 71.401,396.189 57.800 C 395.583 55.820,394.966 54.110,394.818 54.000 C 394.670 53.890,394.120 52.630,393.596 51.200 C 392.602 48.490,390.028 43.359,388.757 41.552 C 388.352 40.976,387.840 40.031,387.620 39.452 C 387.400 38.874,387.064 38.400,386.874 38.400 C 386.684 38.400,386.320 37.943,386.066 37.385 C 385.130 35.330,379.558 28.361,375.814 24.562 C 374.456 23.183,371.755 20.820,366.456 16.374 C 365.937 15.939,364.677 15.096,363.656 14.502 C 362.635 13.909,361.451 13.103,361.025 12.711 C 360.598 12.320,360.086 12.000,359.886 12.000 C 359.687 12.000,359.046 11.664,358.462 11.253 C 356.643 9.973,351.519 7.402,348.800 6.404 C 347.370 5.880,346.110 5.325,346.000 5.172 C 345.890 5.018,344.360 4.500,342.600 4.020 C 340.840 3.539,338.860 2.905,338.200 2.610 C 337.540 2.315,334.660 1.654,331.800 1.141 L 326.600 0.208 201.200 0.138 C 80.154 0.069,75.626 0.093,70.800 0.821 M323.216 49.600 C 326.798 53.010,330.380 56.430,331.177 57.200 C 331.973 57.970,336.210 62.020,340.593 66.200 C 344.976 70.380,350.280 75.453,352.381 77.474 L 356.200 81.149 354.370 83.074 C 352.374 85.175,335.492 102.856,329.030 109.614 C 326.813 111.932,322.210 116.774,318.800 120.374 C 315.390 123.975,312.405 127.111,312.166 127.343 C 311.856 127.645,312.299 128.743,313.714 131.183 C 316.830 136.555,320.602 144.216,322.388 148.800 C 323.289 151.110,324.175 153.360,324.359 153.800 C 325.658 156.916,328.515 167.508,329.753 173.800 C 332.759 189.073,332.519 210.135,329.168 225.200 C 328.704 227.290,328.168 229.720,327.978 230.600 C 327.063 234.830,323.629 244.883,321.008 251.000 C 319.158 255.318,314.497 264.039,311.529 268.738 C 311.160 269.322,310.845 269.910,310.829 270.045 C 310.813 270.179,314.805 274.125,319.700 278.813 C 324.595 283.501,330.765 289.421,333.411 291.968 C 336.056 294.516,341.456 299.658,345.411 303.396 C 349.365 307.134,353.842 311.382,355.360 312.837 L 358.119 315.482 353.960 319.828 C 351.672 322.219,349.170 324.829,348.400 325.629 C 347.630 326.428,345.470 328.688,343.600 330.651 C 341.730 332.613,336.315 338.265,331.567 343.210 C 326.819 348.154,322.255 352.963,321.425 353.896 L 319.915 355.591 318.857 354.765 C 318.276 354.310,316.076 352.287,313.969 350.269 C 311.863 348.251,308.263 344.817,305.969 342.639 C 303.676 340.460,299.999 336.950,297.797 334.839 C 272.844 310.908,271.463 309.604,271.062 309.602 C 270.876 309.601,269.166 310.553,267.262 311.718 C 263.483 314.031,252.476 319.581,249.600 320.625 C 241.100 323.709,238.610 324.558,236.000 325.258 C 231.219 326.541,227.143 327.496,225.200 327.789 C 224.210 327.938,222.050 328.304,220.400 328.602 C 197.905 332.660,170.664 329.365,148.915 319.956 C 146.322 318.834,143.636 317.704,142.946 317.446 C 142.257 317.187,141.447 316.795,141.146 316.575 C 140.846 316.356,139.790 315.751,138.800 315.232 C 137.810 314.713,135.413 313.368,133.474 312.244 C 131.535 311.120,129.255 309.798,128.407 309.307 L 126.865 308.413 122.519 312.907 C 116.896 318.719,110.240 325.678,101.960 334.403 C 85.670 351.568,81.572 355.800,81.238 355.800 C 81.042 355.800,79.287 354.270,77.338 352.400 C 75.390 350.530,68.229 343.690,61.425 337.200 C 54.622 330.710,47.243 323.656,45.028 321.524 L 41.000 317.647 45.200 313.319 C 47.510 310.939,51.470 306.821,54.000 304.170 C 61.978 295.808,71.355 285.949,72.564 284.650 C 73.205 283.963,75.635 281.420,77.964 278.999 C 80.294 276.579,83.521 273.218,85.136 271.531 L 88.073 268.464 86.184 265.353 C 79.839 254.900,74.033 240.340,71.050 227.400 C 69.269 219.671,68.372 212.904,68.056 204.813 C 67.453 189.383,69.321 172.973,73.019 161.200 C 76.917 148.792,80.440 140.717,86.203 130.983 L 89.155 125.995 87.813 124.697 C 87.075 123.984,84.880 121.881,82.936 120.023 C 80.991 118.166,77.419 114.746,74.998 112.423 C 72.577 110.101,66.457 104.242,61.398 99.404 C 56.339 94.566,50.513 88.971,48.452 86.970 L 44.703 83.333 45.652 82.342 C 46.173 81.797,48.588 79.292,51.017 76.775 C 53.446 74.259,59.467 67.970,64.395 62.800 C 79.177 47.295,82.765 43.600,83.040 43.600 C 83.429 43.600,86.030 45.954,91.200 50.983 C 93.730 53.445,101.740 61.100,109.000 67.996 C 116.260 74.892,123.682 81.966,125.494 83.717 L 128.788 86.900 129.894 86.157 C 131.216 85.269,131.478 85.116,136.592 82.248 C 147.076 76.368,161.781 70.979,173.200 68.831 C 175.730 68.355,178.520 67.805,179.400 67.608 C 191.809 64.829,219.492 66.347,234.400 70.623 C 235.610 70.970,237.590 71.528,238.800 71.862 C 247.432 74.248,265.434 82.705,271.626 87.282 L 272.782 88.137 276.091 84.573 C 279.598 80.796,285.379 74.736,293.618 66.200 C 296.378 63.340,302.482 56.987,307.182 52.083 C 311.882 47.179,315.947 43.219,316.216 43.283 C 316.484 43.347,319.634 46.190,323.216 49.600 M194.200 117.642 C 186.586 118.565,180.727 119.598,178.600 120.392 C 178.160 120.557,176.270 121.185,174.400 121.788 C 159.696 126.534,143.336 138.682,134.794 151.200 C 134.268 151.970,133.740 152.690,133.619 152.800 C 133.360 153.036,133.014 153.607,130.676 157.654 C 128.081 162.145,124.800 169.094,124.800 170.098 C 124.800 170.396,124.650 170.811,124.467 171.020 C 124.285 171.229,123.916 172.210,123.649 173.200 C 123.382 174.190,123.007 175.360,122.817 175.800 C 122.213 177.194,120.468 186.434,119.966 190.895 C 119.086 198.721,120.586 214.595,122.773 220.600 C 122.934 221.040,123.561 222.930,124.167 224.800 C 126.126 230.842,129.543 237.738,133.277 243.190 C 134.225 244.573,135.262 246.086,135.582 246.552 C 138.226 250.406,145.328 257.822,149.800 261.400 C 150.900 262.280,151.860 263.135,151.933 263.300 C 152.007 263.465,152.307 263.600,152.600 263.600 C 152.893 263.600,153.193 263.740,153.267 263.910 C 153.853 265.276,170.845 274.400,172.801 274.400 C 173.026 274.400,173.523 274.572,173.905 274.782 C 174.792 275.269,179.439 276.612,182.800 277.352 C 216.882 284.855,252.606 269.708,269.984 240.385 C 277.112 228.357,280.846 216.039,281.436 202.600 C 281.905 191.901,280.223 179.749,277.172 171.800 C 277.003 171.360,276.356 169.651,275.733 168.003 C 274.800 165.535,272.050 160.008,269.859 156.200 C 265.842 149.216,256.990 139.439,249.670 133.901 C 244.275 129.819,242.112 128.499,236.000 125.558 C 230.339 122.834,229.355 122.400,228.834 122.400 C 228.589 122.400,228.077 122.230,227.695 122.022 C 222.232 119.053,203.149 116.557,194.200 117.642 M181.609 152.220 C 183.034 153.033,185.010 154.152,186.000 154.707 C 186.990 155.261,188.278 156.049,188.862 156.457 C 189.446 156.866,190.034 157.200,190.170 157.200 C 190.305 157.200,191.177 157.687,192.108 158.282 C 193.039 158.877,194.340 159.645,195.000 159.990 C 205.819 165.635,206.400 166.360,206.400 174.223 L 206.400 179.886 203.908 181.443 C 202.537 182.299,201.088 183.133,200.688 183.294 C 200.288 183.456,199.172 184.131,198.208 184.794 C 195.270 186.816,195.200 186.727,195.200 180.987 C 195.200 175.083,193.490 170.817,191.118 170.802 C 190.962 170.801,189.963 170.286,188.897 169.657 C 176.218 162.182,176.766 162.219,166.400 168.142 C 165.410 168.708,163.643 169.662,162.473 170.264 C 157.723 172.704,157.089 174.469,157.270 184.756 C 157.412 192.875,157.915 194.777,160.251 196.027 C 160.773 196.307,161.200 196.685,161.200 196.868 C 161.200 197.050,161.385 197.200,161.611 197.200 C 161.837 197.200,163.911 198.325,166.221 199.700 C 172.879 203.665,174.409 204.368,176.410 204.385 C 178.225 204.400,178.261 204.383,185.964 199.930 C 186.715 199.496,187.972 198.705,188.757 198.171 C 189.543 197.637,190.315 197.200,190.473 197.200 C 190.631 197.200,191.534 196.683,192.480 196.051 C 193.426 195.419,195.460 194.223,197.000 193.393 C 198.540 192.563,199.980 191.753,200.200 191.592 C 200.420 191.432,201.770 190.673,203.200 189.905 C 206.922 187.906,208.493 187.007,213.000 184.293 C 225.380 176.840,224.800 176.912,233.200 181.788 C 234.630 182.619,236.430 183.654,237.200 184.090 C 249.784 191.207,253.377 193.485,254.359 194.968 L 255.400 196.542 255.400 211.836 L 255.400 227.131 254.185 228.866 C 253.026 230.519,242.767 237.144,241.300 237.186 C 241.025 237.194,240.799 237.335,240.797 237.500 C 240.795 237.665,240.390 237.995,239.897 238.233 C 238.377 238.967,235.056 240.875,233.938 241.657 C 233.354 242.066,232.778 242.400,232.658 242.400 C 232.538 242.400,231.396 243.030,230.120 243.799 C 226.782 245.812,223.569 245.812,220.228 243.800 C 218.949 243.030,217.843 242.400,217.770 242.400 C 217.697 242.400,215.064 240.895,211.919 239.056 C 208.773 237.218,204.850 234.945,203.200 234.007 C 201.550 233.068,199.574 231.943,198.808 231.505 C 195.506 229.619,194.805 227.800,194.802 221.100 C 194.800 215.910,194.943 215.564,197.679 214.168 C 198.405 213.797,200.323 212.695,201.939 211.719 C 205.913 209.319,205.893 209.299,206.060 215.672 C 206.255 223.084,206.273 223.110,214.400 227.516 C 215.830 228.292,217.630 229.288,218.400 229.731 C 224.513 233.243,225.146 233.232,231.600 229.518 C 244.633 222.019,243.600 223.523,243.600 212.039 C 243.600 201.602,243.395 201.035,238.711 198.529 C 237.550 197.908,236.510 197.310,236.400 197.200 C 236.176 196.976,234.209 195.922,229.211 193.346 C 224.673 191.009,224.310 191.063,217.100 195.150 C 216.275 195.617,214.925 196.378,214.100 196.840 C 210.809 198.684,204.885 202.185,202.906 203.456 C 201.755 204.195,200.716 204.800,200.598 204.800 C 200.480 204.800,199.656 205.260,198.766 205.821 C 197.876 206.383,196.575 207.168,195.874 207.566 C 195.173 207.964,191.802 209.903,188.382 211.875 C 175.647 219.219,176.771 219.170,166.000 212.858 C 159.999 209.342,159.045 208.808,158.300 208.550 C 157.915 208.416,157.600 208.148,157.600 207.953 C 157.600 207.759,157.415 207.600,157.189 207.600 C 156.153 207.600,148.260 202.563,147.277 201.274 L 146.200 199.862 146.200 184.031 C 146.200 165.776,145.983 166.816,150.300 164.377 C 151.565 163.662,153.185 162.745,153.900 162.339 C 154.615 161.932,155.875 161.219,156.700 160.753 C 157.525 160.286,160.000 158.868,162.200 157.600 C 166.615 155.056,168.507 153.981,171.200 152.490 C 172.190 151.942,173.180 151.356,173.400 151.190 C 175.004 149.973,178.425 150.402,181.609 152.220 " stroke="none" fill="#8c5beb" fill-rule="evenodd"></path><path id="path2" d="M316.400 43.325 C 316.400 43.394,316.985 43.979,317.700 44.625 L 319.000 45.800 317.825 44.500 C 316.730 43.288,316.400 43.016,316.400 43.325 M74.181 52.500 L 72.600 54.200 74.300 52.619 C 75.235 51.749,76.000 50.984,76.000 50.919 C 76.000 50.616,75.652 50.919,74.181 52.500 M326.400 53.000 C 327.146 53.770,327.847 54.400,327.957 54.400 C 328.067 54.400,327.546 53.770,326.800 53.000 C 326.054 52.230,325.353 51.600,325.243 51.600 C 325.133 51.600,325.654 52.230,326.400 53.000 M104.800 64.125 C 104.800 64.194,105.385 64.779,106.100 65.425 L 107.400 66.600 106.225 65.300 C 105.130 64.088,104.800 63.816,104.800 64.125 M115.000 74.000 C 115.859 74.880,116.652 75.600,116.762 75.600 C 116.872 75.600,116.259 74.880,115.400 74.000 C 114.541 73.120,113.748 72.400,113.638 72.400 C 113.528 72.400,114.141 73.120,115.000 74.000 M124.600 83.200 C 125.683 84.300,126.660 85.200,126.770 85.200 C 126.880 85.200,126.083 84.300,125.000 83.200 C 123.917 82.100,122.940 81.200,122.830 81.200 C 122.720 81.200,123.517 82.100,124.600 83.200 M276.981 83.700 L 275.400 85.400 277.100 83.819 C 278.681 82.348,278.984 82.000,278.681 82.000 C 278.616 82.000,277.851 82.765,276.981 83.700 M322.975 115.700 L 321.800 117.000 323.100 115.825 C 323.815 115.179,324.400 114.594,324.400 114.525 C 324.400 114.216,324.070 114.488,322.975 115.700 M194.705 117.483 C 195.202 117.579,195.922 117.575,196.305 117.475 C 196.687 117.375,196.280 117.296,195.400 117.301 C 194.520 117.305,194.207 117.387,194.705 117.483 M205.300 117.476 C 205.685 117.576,206.315 117.576,206.700 117.476 C 207.085 117.375,206.770 117.293,206.000 117.293 C 205.230 117.293,204.915 117.375,205.300 117.476 M190.500 117.887 C 191.105 117.978,192.095 117.978,192.700 117.887 C 193.305 117.795,192.810 117.720,191.600 117.720 C 190.390 117.720,189.895 117.795,190.500 117.887 M208.900 117.887 C 209.505 117.978,210.495 117.978,211.100 117.887 C 211.705 117.795,211.210 117.720,210.000 117.720 C 208.790 117.720,208.295 117.795,208.900 117.887 M214.433 118.544 C 214.525 118.624,215.410 118.796,216.400 118.927 C 217.602 119.086,217.934 119.047,217.400 118.810 C 216.636 118.472,214.086 118.243,214.433 118.544 M82.400 119.325 C 82.400 119.394,82.985 119.979,83.700 120.625 L 85.000 121.800 83.825 120.500 C 82.730 119.288,82.400 119.016,82.400 119.325 M180.600 119.600 C 179.581 120.038,180.632 120.038,182.000 119.600 C 182.804 119.343,182.843 119.277,182.200 119.268 C 181.760 119.262,181.040 119.411,180.600 119.600 M163.500 126.027 C 162.675 126.463,162.000 126.908,162.000 127.018 C 162.000 127.127,162.720 126.849,163.600 126.400 C 164.480 125.951,165.200 125.497,165.200 125.392 C 165.200 125.130,165.197 125.131,163.500 126.027 M157.300 129.646 C 155.937 130.519,155.495 131.106,156.700 130.443 C 157.618 129.939,159.056 128.827,158.800 128.819 C 158.690 128.816,158.015 129.188,157.300 129.646 M246.159 131.134 C 246.292 131.349,247.320 132.186,248.442 132.992 C 249.565 133.799,250.374 134.282,250.241 134.066 C 250.108 133.851,249.080 133.014,247.958 132.208 C 246.835 131.401,246.026 130.918,246.159 131.134 M147.785 136.754 C 145.813 138.488,143.120 141.051,141.800 142.448 C 140.401 143.928,141.069 143.399,143.400 141.179 C 145.600 139.084,148.390 136.526,149.600 135.495 C 150.810 134.463,151.703 133.615,151.585 133.610 C 151.466 133.604,149.756 135.019,147.785 136.754 M254.000 137.400 C 254.746 138.170,255.447 138.800,255.557 138.800 C 255.667 138.800,255.146 138.170,254.400 137.400 C 253.654 136.630,252.953 136.000,252.843 136.000 C 252.733 136.000,253.254 136.630,254.000 137.400 M257.936 141.173 C 259.027 142.288,260.015 143.200,260.131 143.200 C 260.503 143.200,257.426 139.936,256.675 139.534 C 256.277 139.320,256.844 140.058,257.936 141.173 M261.600 145.000 C 262.346 145.770,263.047 146.400,263.157 146.400 C 263.267 146.400,262.746 145.770,262.000 145.000 C 261.254 144.230,260.553 143.600,260.443 143.600 C 260.333 143.600,260.854 144.230,261.600 145.000 M138.363 146.300 C 136.650 148.211,135.869 149.200,136.075 149.200 C 136.185 149.200,137.034 148.300,137.961 147.200 C 139.745 145.085,140.035 144.436,138.363 146.300 M265.375 149.732 C 265.991 150.539,266.576 151.200,266.675 151.200 C 266.953 151.200,265.221 148.860,264.709 148.544 C 264.459 148.389,264.759 148.924,265.375 149.732 M175.905 150.683 C 176.402 150.779,177.122 150.775,177.505 150.675 C 177.887 150.575,177.480 150.496,176.600 150.501 C 175.720 150.505,175.407 150.587,175.905 150.683 M268.000 153.400 C 268.681 154.390,269.328 155.200,269.438 155.200 C 269.548 155.200,269.081 154.390,268.400 153.400 C 267.719 152.410,267.072 151.600,266.962 151.600 C 266.852 151.600,267.319 152.410,268.000 153.400 M181.200 152.179 C 181.200 152.289,181.740 152.659,182.400 153.000 C 183.060 153.341,183.600 153.531,183.600 153.421 C 183.600 153.311,183.060 152.941,182.400 152.600 C 181.740 152.259,181.200 152.069,181.200 152.179 M187.400 155.807 C 187.840 156.166,188.560 156.635,189.000 156.851 L 189.800 157.244 189.000 156.593 C 188.560 156.234,187.840 155.765,187.400 155.549 L 186.600 155.156 187.400 155.807 M129.400 159.200 C 129.059 159.860,128.869 160.400,128.979 160.400 C 129.089 160.400,129.459 159.860,129.800 159.200 C 130.141 158.540,130.331 158.000,130.221 158.000 C 130.111 158.000,129.741 158.540,129.400 159.200 M272.881 161.791 C 273.359 162.776,273.819 163.514,273.903 163.430 C 274.084 163.249,272.468 160.000,272.197 160.000 C 272.094 160.000,272.402 160.806,272.881 161.791 M196.400 160.979 C 196.400 161.089,196.940 161.459,197.600 161.800 C 198.260 162.141,198.800 162.331,198.800 162.221 C 198.800 162.111,198.260 161.741,197.600 161.400 C 196.940 161.059,196.400 160.869,196.400 160.979 M175.700 163.476 C 176.085 163.576,176.715 163.576,177.100 163.476 C 177.485 163.375,177.170 163.293,176.400 163.293 C 175.630 163.293,175.315 163.375,175.700 163.476 M173.300 164.012 C 171.961 164.551,172.211 164.824,173.600 164.340 C 174.260 164.110,174.800 163.849,174.800 163.761 C 174.800 163.524,174.313 163.605,173.300 164.012 M201.768 164.085 C 202.191 164.368,203.262 165.230,204.148 166.000 C 205.515 167.188,205.641 167.237,204.980 166.327 C 204.551 165.737,203.480 164.875,202.600 164.412 C 201.720 163.949,201.346 163.802,201.768 164.085 M147.320 166.669 L 146.200 168.138 146.200 184.049 C 146.200 196.425,146.314 200.074,146.711 200.471 C 147.125 200.885,147.142 200.752,146.797 199.763 C 146.518 198.962,146.411 193.330,146.486 183.341 L 146.600 168.137 147.720 166.668 C 148.337 165.861,148.751 165.200,148.641 165.200 C 148.531 165.200,147.937 165.861,147.320 166.669 M163.800 169.227 C 163.140 169.650,162.805 169.997,163.056 169.998 C 163.306 169.999,163.936 169.646,164.456 169.213 C 165.645 168.223,165.359 168.229,163.800 169.227 M187.200 168.579 C 187.200 168.689,187.740 169.059,188.400 169.400 C 189.060 169.741,189.600 169.931,189.600 169.821 C 189.600 169.711,189.060 169.341,188.400 169.000 C 187.740 168.659,187.200 168.469,187.200 168.579 M158.841 172.614 C 158.159 173.392,157.605 174.247,157.612 174.514 C 157.619 174.781,157.823 174.640,158.066 174.200 C 158.308 173.760,158.967 172.905,159.528 172.300 C 160.090 171.695,160.445 171.200,160.316 171.200 C 160.188 171.200,159.524 171.836,158.841 172.614 M277.656 173.200 C 277.656 173.530,277.811 174.160,278.000 174.600 C 278.217 175.104,278.344 175.178,278.344 174.800 C 278.344 174.470,278.189 173.840,278.000 173.400 C 277.783 172.896,277.656 172.822,277.656 173.200 M121.800 178.400 C 121.648 179.091,121.607 179.741,121.709 179.842 C 121.811 179.944,122.009 179.453,122.150 178.750 C 122.483 177.083,122.160 176.760,121.800 178.400 M226.000 178.484 C 226.110 178.593,226.826 178.893,227.591 179.151 C 228.356 179.410,228.806 179.450,228.591 179.239 C 228.376 179.029,227.660 178.729,227.000 178.572 C 226.340 178.416,225.890 178.376,226.000 178.484 M121.056 181.284 C 120.921 181.788,120.827 182.560,120.846 183.000 C 120.865 183.440,121.045 183.098,121.246 182.240 C 121.636 180.578,121.470 179.740,121.056 181.284 M201.900 182.229 C 201.295 182.557,200.800 182.910,200.800 183.013 C 200.800 183.399,201.432 183.157,202.400 182.400 C 203.589 181.470,203.411 181.409,201.900 182.229 M212.300 184.629 C 210.805 185.440,210.896 185.778,212.400 185.000 C 213.060 184.659,213.600 184.294,213.600 184.190 C 213.600 183.932,213.557 183.947,212.300 184.629 M280.495 184.800 C 280.495 185.350,280.632 186.340,280.800 187.000 C 281.072 188.070,281.105 188.092,281.105 187.200 C 281.105 186.650,280.968 185.660,280.800 185.000 C 280.528 183.930,280.495 183.908,280.495 184.800 M238.400 184.979 C 238.400 185.089,238.940 185.459,239.600 185.800 C 240.260 186.141,240.800 186.331,240.800 186.221 C 240.800 186.111,240.260 185.741,239.600 185.400 C 238.940 185.059,238.400 184.869,238.400 184.979 M195.200 185.700 C 195.200 185.865,195.549 186.000,195.976 186.000 C 196.403 186.000,196.836 185.865,196.938 185.700 C 197.040 185.535,196.691 185.400,196.162 185.400 C 195.633 185.400,195.200 185.535,195.200 185.700 M120.114 187.800 C 120.117 188.900,120.195 189.303,120.287 188.695 C 120.379 188.086,120.377 187.186,120.282 186.695 C 120.187 186.203,120.111 186.700,120.114 187.800 M243.200 187.779 C 243.200 187.889,243.740 188.259,244.400 188.600 C 245.060 188.941,245.600 189.131,245.600 189.021 C 245.600 188.911,245.060 188.541,244.400 188.200 C 243.740 187.859,243.200 187.669,243.200 187.779 M202.296 190.358 C 199.993 191.709,199.280 192.366,201.148 191.416 C 203.219 190.362,205.046 189.201,204.600 189.222 C 204.380 189.232,203.343 189.743,202.296 190.358 M281.324 191.800 C 281.326 193.120,281.401 193.612,281.490 192.893 C 281.579 192.174,281.577 191.094,281.486 190.493 C 281.395 189.892,281.322 190.480,281.324 191.800 M119.693 191.200 C 119.693 191.970,119.775 192.285,119.876 191.900 C 119.976 191.515,119.976 190.885,119.876 190.500 C 119.775 190.115,119.693 190.430,119.693 191.200 M331.720 193.200 C 331.720 194.410,331.795 194.905,331.887 194.300 C 331.978 193.695,331.978 192.705,331.887 192.100 C 331.795 191.495,331.720 191.990,331.720 193.200 M198.300 192.629 C 196.805 193.440,196.896 193.778,198.400 193.000 C 199.060 192.659,199.600 192.294,199.600 192.190 C 199.600 191.932,199.557 191.947,198.300 192.629 M250.810 192.126 C 251.409 192.774,254.095 194.397,253.618 193.822 C 253.310 193.451,252.505 192.866,251.829 192.523 C 251.153 192.179,250.695 192.001,250.810 192.126 M219.900 193.227 C 219.075 193.663,218.400 194.108,218.400 194.218 C 218.400 194.327,219.120 194.049,220.000 193.600 C 220.880 193.151,221.600 192.697,221.600 192.592 C 221.600 192.330,221.597 192.331,219.900 193.227 M157.600 193.089 C 157.600 193.321,157.971 193.936,158.424 194.456 L 159.247 195.400 158.545 194.200 C 157.620 192.621,157.600 192.597,157.600 193.089 M281.682 198.200 C 281.634 200.400,281.513 203.460,281.414 205.000 L 281.234 207.800 281.628 205.000 C 281.845 203.460,281.965 200.400,281.895 198.200 L 281.769 194.200 281.682 198.200 M254.324 195.400 C 254.526 195.840,254.792 196.470,254.914 196.800 C 255.107 197.318,255.141 197.315,255.168 196.776 C 255.186 196.434,254.920 195.804,254.578 195.376 C 253.966 194.612,253.962 194.613,254.324 195.400 M233.200 195.379 C 233.200 195.489,233.740 195.859,234.400 196.200 C 235.060 196.541,235.600 196.731,235.600 196.621 C 235.600 196.511,235.060 196.141,234.400 195.800 C 233.740 195.459,233.200 195.269,233.200 195.379 M162.000 197.333 C 162.000 197.577,165.902 200.000,166.295 200.000 C 166.610 200.000,165.744 199.392,163.500 198.039 C 162.675 197.542,162.000 197.224,162.000 197.333 M188.900 198.046 C 187.537 198.919,187.095 199.506,188.300 198.843 C 189.218 198.339,190.656 197.227,190.400 197.219 C 190.290 197.216,189.615 197.588,188.900 198.046 M255.381 211.800 C 255.380 219.720,255.434 223.017,255.499 219.126 C 255.565 215.235,255.565 208.755,255.500 204.726 C 255.434 200.697,255.381 203.880,255.381 211.800 M167.400 200.596 C 168.294 201.339,170.828 202.709,170.200 202.110 C 169.980 201.900,169.080 201.324,168.200 200.830 C 167.320 200.335,166.960 200.230,167.400 200.596 M206.300 201.029 C 204.805 201.840,204.896 202.178,206.400 201.400 C 207.060 201.059,207.600 200.694,207.600 200.590 C 207.600 200.332,207.557 200.347,206.300 201.029 M331.720 203.200 C 331.720 204.410,331.795 204.905,331.887 204.300 C 331.978 203.695,331.978 202.705,331.887 202.100 C 331.795 201.495,331.720 201.990,331.720 203.200 M119.701 204.200 C 119.705 205.080,119.787 205.393,119.883 204.895 C 119.979 204.398,119.975 203.678,119.875 203.295 C 119.775 202.913,119.696 203.320,119.701 204.200 M150.000 203.620 C 151.387 204.561,152.178 204.835,151.200 204.036 C 150.650 203.586,150.020 203.217,149.800 203.215 C 149.580 203.213,149.670 203.396,150.000 203.620 M201.400 204.000 C 200.740 204.437,200.380 204.792,200.600 204.788 C 201.001 204.782,203.176 203.223,202.800 203.212 C 202.690 203.208,202.060 203.563,201.400 204.000 M243.768 212.200 C 243.768 216.600,243.826 218.455,243.898 216.321 C 243.970 214.188,243.970 210.588,243.899 208.321 C 243.827 206.055,243.768 207.800,243.768 212.200 M153.200 205.339 C 153.200 205.610,156.837 207.697,157.009 207.524 C 157.090 207.443,156.266 206.877,155.178 206.266 C 154.090 205.654,153.200 205.237,153.200 205.339 M120.120 208.000 C 120.120 209.210,120.195 209.705,120.287 209.100 C 120.378 208.495,120.378 207.505,120.287 206.900 C 120.195 206.295,120.120 206.790,120.120 208.000 M68.093 207.600 C 68.093 208.370,68.175 208.685,68.276 208.300 C 68.376 207.915,68.376 207.285,68.276 206.900 C 68.175 206.515,68.093 206.830,68.093 207.600 M158.800 208.555 C 158.800 208.831,161.621 210.512,161.794 210.339 C 161.878 210.255,161.238 209.780,160.373 209.282 C 159.508 208.784,158.800 208.457,158.800 208.555 M280.618 211.018 C 280.465 212.039,280.422 212.955,280.522 213.055 C 280.622 213.155,280.829 212.402,280.982 211.382 C 281.135 210.361,281.178 209.445,281.078 209.345 C 280.978 209.245,280.771 209.998,280.618 211.018 M204.223 210.363 C 204.100 210.562,204.359 210.631,204.799 210.516 C 205.566 210.316,205.601 210.509,205.628 215.053 C 205.644 217.664,205.779 220.109,205.928 220.486 C 206.214 221.207,206.079 211.366,205.791 210.500 C 205.599 209.921,204.553 209.830,204.223 210.363 M202.300 211.429 C 200.805 212.240,200.896 212.578,202.400 211.800 C 203.060 211.459,203.600 211.094,203.600 210.990 C 203.600 210.732,203.557 210.747,202.300 211.429 M163.600 211.379 C 163.600 211.489,164.140 211.859,164.800 212.200 C 165.460 212.541,166.000 212.731,166.000 212.621 C 166.000 212.511,165.460 212.141,164.800 211.800 C 164.140 211.459,163.600 211.269,163.600 211.379 M187.100 212.229 C 185.605 213.040,185.696 213.378,187.200 212.600 C 187.860 212.259,188.400 211.894,188.400 211.790 C 188.400 211.532,188.357 211.547,187.100 212.229 M184.300 213.829 C 182.805 214.640,182.896 214.978,184.400 214.200 C 185.060 213.859,185.600 213.494,185.600 213.390 C 185.600 213.132,185.557 213.147,184.300 213.829 M197.500 214.229 C 196.005 215.040,196.096 215.378,197.600 214.600 C 198.260 214.259,198.800 213.894,198.800 213.790 C 198.800 213.532,198.757 213.547,197.500 214.229 M168.400 214.179 C 168.400 214.289,168.940 214.659,169.600 215.000 C 170.260 215.341,170.800 215.531,170.800 215.421 C 170.800 215.311,170.260 214.941,169.600 214.600 C 168.940 214.259,168.400 214.069,168.400 214.179 M121.668 217.000 C 121.662 217.440,121.811 218.160,122.000 218.600 C 122.438 219.619,122.438 218.568,122.000 217.200 C 121.743 216.396,121.677 216.357,121.668 217.000 M194.955 221.400 C 194.956 224.260,195.020 225.378,195.097 223.883 C 195.174 222.389,195.174 220.049,195.096 218.683 C 195.018 217.318,194.955 218.540,194.955 221.400 M176.400 217.200 L 174.600 217.480 176.200 217.512 C 177.080 217.529,178.160 217.389,178.600 217.200 C 179.527 216.802,178.961 216.802,176.400 217.200 M243.200 221.119 C 243.200 221.368,242.622 222.253,241.915 223.086 C 240.763 224.443,240.746 224.496,241.751 223.600 C 243.017 222.472,243.780 221.246,243.432 220.899 C 243.305 220.771,243.200 220.870,243.200 221.119 M208.800 224.579 C 208.800 224.689,209.340 225.059,210.000 225.400 C 210.660 225.741,211.200 225.931,211.200 225.821 C 211.200 225.711,210.660 225.341,210.000 225.000 C 209.340 224.659,208.800 224.469,208.800 224.579 M254.500 227.700 C 254.070 228.875,254.080 228.926,254.612 228.224 C 255.121 227.552,255.421 226.400,255.088 226.400 C 255.026 226.400,254.761 226.985,254.500 227.700 M213.910 227.601 C 215.608 228.637,216.164 228.636,214.600 227.600 C 213.940 227.163,213.220 226.805,213.000 226.804 C 212.780 226.804,213.189 227.162,213.910 227.601 M276.067 227.980 C 275.833 228.651,275.727 229.200,275.831 229.200 C 276.101 229.200,276.856 227.122,276.657 226.924 C 276.567 226.833,276.301 227.308,276.067 227.980 M195.204 227.400 C 195.205 227.620,195.563 228.340,196.000 229.000 C 197.036 230.564,197.037 230.008,196.001 228.310 C 195.562 227.589,195.204 227.180,195.204 227.400 M252.400 230.460 C 251.630 231.135,251.362 231.505,251.804 231.281 C 252.535 230.911,254.347 229.178,253.962 229.216 C 253.873 229.225,253.170 229.785,252.400 230.460 M126.428 231.400 C 126.428 231.620,126.686 232.250,127.000 232.800 C 127.314 233.350,127.572 233.620,127.572 233.400 C 127.572 233.180,127.314 232.550,127.000 232.000 C 126.686 231.450,126.428 231.180,126.428 231.400 M221.600 231.800 C 222.150 232.114,222.780 232.372,223.000 232.372 C 223.220 232.372,222.950 232.114,222.400 231.800 C 221.850 231.486,221.220 231.228,221.000 231.228 C 220.780 231.228,221.050 231.486,221.600 231.800 M200.200 232.207 C 200.640 232.566,201.360 233.035,201.800 233.251 L 202.600 233.644 201.800 232.993 C 201.360 232.634,200.640 232.165,200.200 231.949 L 199.400 231.556 200.200 232.207 M247.500 233.429 C 246.005 234.240,246.096 234.578,247.600 233.800 C 248.260 233.459,248.800 233.094,248.800 232.990 C 248.800 232.732,248.757 232.747,247.500 233.429 M272.881 235.009 C 272.402 235.994,272.094 236.800,272.197 236.800 C 272.468 236.800,274.084 233.551,273.903 233.370 C 273.819 233.286,273.359 234.024,272.881 235.009 M242.400 236.436 C 241.736 236.979,241.669 237.115,242.200 236.840 C 243.505 236.166,244.228 235.612,243.800 235.615 C 243.580 235.617,242.950 235.986,242.400 236.436 M209.200 237.379 C 209.200 237.489,209.740 237.859,210.400 238.200 C 211.060 238.541,211.600 238.731,211.600 238.621 C 211.600 238.511,211.060 238.141,210.400 237.800 C 209.740 237.459,209.200 237.269,209.200 237.379 M238.200 238.800 C 237.540 239.237,237.180 239.592,237.400 239.588 C 237.801 239.582,239.976 238.023,239.600 238.012 C 239.490 238.008,238.860 238.363,238.200 238.800 M214.000 240.179 C 214.000 240.289,214.540 240.659,215.200 241.000 C 215.860 241.341,216.400 241.531,216.400 241.421 C 216.400 241.311,215.860 240.941,215.200 240.600 C 214.540 240.259,214.000 240.069,214.000 240.179 M233.400 241.600 C 232.740 242.037,232.380 242.392,232.600 242.388 C 233.001 242.382,235.176 240.823,234.800 240.812 C 234.690 240.808,234.060 241.163,233.400 241.600 M219.000 243.007 C 219.440 243.366,220.160 243.835,220.600 244.051 L 221.400 244.444 220.600 243.793 C 220.160 243.434,219.440 242.965,219.000 242.749 L 218.200 242.356 219.000 243.007 M228.400 244.400 C 227.630 244.822,227.144 245.174,227.320 245.183 C 227.744 245.205,230.000 244.032,230.000 243.790 C 230.000 243.528,229.977 243.537,228.400 244.400 M134.743 245.900 C 135.244 246.615,135.739 247.200,135.841 247.200 C 136.187 247.200,135.250 245.740,134.537 245.167 C 134.036 244.765,134.096 244.978,134.743 245.900 M265.375 247.068 C 264.759 247.876,264.459 248.411,264.709 248.256 C 265.221 247.940,266.953 245.600,266.675 245.600 C 266.576 245.600,265.991 246.261,265.375 247.068 M263.200 249.800 C 262.683 250.350,262.427 250.794,262.630 250.787 C 262.972 250.776,264.621 248.800,264.288 248.800 C 264.206 248.800,263.717 249.250,263.200 249.800 M139.497 251.800 C 140.620 253.120,142.674 255.280,144.062 256.600 C 145.807 258.260,145.484 257.828,143.013 255.200 C 137.960 249.825,137.160 249.051,139.497 251.800 M254.000 259.291 C 252.350 260.860,251.720 261.587,252.600 260.906 C 254.153 259.704,257.546 256.381,257.181 256.419 C 257.082 256.429,255.650 257.722,254.000 259.291 M147.200 259.325 C 147.200 259.394,147.785 259.979,148.500 260.625 L 149.800 261.800 148.625 260.500 C 147.530 259.288,147.200 259.016,147.200 259.325 M156.600 266.607 C 157.040 266.966,157.760 267.435,158.200 267.651 L 159.000 268.044 158.200 267.393 C 157.760 267.034,157.040 266.565,156.600 266.349 L 155.800 265.956 156.600 266.607 M242.900 267.426 C 241.965 267.987,241.200 268.540,241.200 268.655 C 241.200 268.871,243.899 267.338,244.580 266.736 C 245.267 266.128,244.627 266.391,242.900 267.426 M237.500 270.427 C 236.675 270.863,236.000 271.308,236.000 271.418 C 236.000 271.527,236.720 271.249,237.600 270.800 C 238.480 270.351,239.200 269.897,239.200 269.792 C 239.200 269.530,239.197 269.531,237.500 270.427 M168.971 273.216 C 169.836 273.647,170.736 273.994,170.971 273.986 C 171.500 273.970,168.356 272.426,167.800 272.430 C 167.580 272.431,168.107 272.785,168.971 273.216 M180.800 277.194 C 181.130 277.411,181.835 277.591,182.367 277.594 C 183.651 277.602,183.325 277.375,181.600 277.058 C 180.615 276.877,180.378 276.918,180.800 277.194 M219.000 277.200 C 217.911 277.477,217.893 277.507,218.800 277.525 C 219.350 277.535,220.160 277.389,220.600 277.200 C 221.586 276.776,220.666 276.776,219.000 277.200 M185.233 278.149 C 185.325 278.231,186.300 278.401,187.400 278.528 C 188.749 278.684,189.074 278.649,188.400 278.420 C 187.401 278.080,184.918 277.868,185.233 278.149 M193.000 279.215 C 194.320 279.379,196.120 279.507,197.000 279.500 C 198.374 279.489,198.289 279.444,196.400 279.183 C 195.190 279.016,193.390 278.888,192.400 278.898 C 190.756 278.916,190.808 278.943,193.000 279.215 M204.800 279.200 C 202.620 279.467,202.616 279.470,204.400 279.495 C 205.390 279.509,207.190 279.384,208.400 279.217 C 210.561 278.918,210.568 278.913,208.800 278.922 C 207.810 278.926,206.010 279.052,204.800 279.200 M329.583 288.500 C 331.241 290.266,331.600 290.584,331.600 290.283 C 331.600 290.219,330.745 289.364,329.700 288.383 L 327.800 286.600 329.583 288.500 M60.575 297.300 L 59.400 298.600 60.700 297.425 C 61.912 296.330,62.184 296.000,61.875 296.000 C 61.806 296.000,61.221 296.585,60.575 297.300 M339.983 298.500 C 340.964 299.545,341.819 300.400,341.883 300.400 C 342.184 300.400,341.866 300.041,340.100 298.383 L 338.200 296.600 339.983 298.500 M50.378 307.900 L 49.000 309.400 50.500 308.022 C 51.896 306.738,52.184 306.400,51.878 306.400 C 51.812 306.400,51.137 307.075,50.378 307.900 M115.978 319.500 L 114.600 321.000 116.100 319.622 C 117.496 318.338,117.784 318.000,117.478 318.000 C 117.412 318.000,116.737 318.675,115.978 319.500 M44.000 320.600 C 44.746 321.370,45.447 322.000,45.557 322.000 C 45.667 322.000,45.146 321.370,44.400 320.600 C 43.654 319.830,42.953 319.200,42.843 319.200 C 42.733 319.200,43.254 319.830,44.000 320.600 M352.575 320.900 L 351.400 322.200 352.700 321.025 C 353.415 320.379,354.000 319.794,354.000 319.725 C 354.000 319.416,353.670 319.688,352.575 320.900 M106.800 329.000 C 105.828 329.990,105.123 330.800,105.233 330.800 C 105.343 330.800,106.228 329.990,107.200 329.000 C 108.172 328.010,108.877 327.200,108.767 327.200 C 108.657 327.200,107.772 328.010,106.800 329.000 M53.983 330.100 C 54.964 331.145,55.819 332.000,55.883 332.000 C 56.184 332.000,55.866 331.641,54.100 329.983 L 52.200 328.200 53.983 330.100 M96.975 339.300 L 95.800 340.600 97.100 339.425 C 98.312 338.330,98.584 338.000,98.275 338.000 C 98.206 338.000,97.621 338.585,96.975 339.300 M307.600 344.200 C 308.346 344.970,309.047 345.600,309.157 345.600 C 309.267 345.600,308.746 344.970,308.000 344.200 C 307.254 343.430,306.553 342.800,306.443 342.800 C 306.333 342.800,306.854 343.430,307.600 344.200 M88.175 348.500 L 87.000 349.800 88.300 348.625 C 89.512 347.530,89.784 347.200,89.475 347.200 C 89.406 347.200,88.821 347.785,88.175 348.500 " stroke="none" fill="#b597ed" fill-rule="evenodd"></path><path id="path3" d="M198.500 66.291 C 199.325 66.378,200.675 66.378,201.500 66.291 C 202.325 66.205,201.650 66.134,200.000 66.134 C 198.350 66.134,197.675 66.205,198.500 66.291 M189.305 66.687 C 189.914 66.779,190.814 66.777,191.305 66.682 C 191.797 66.587,191.300 66.511,190.200 66.514 C 189.100 66.517,188.697 66.595,189.305 66.687 M208.700 66.682 C 209.195 66.778,210.005 66.778,210.500 66.682 C 210.995 66.587,210.590 66.509,209.600 66.509 C 208.610 66.509,208.205 66.587,208.700 66.682 M184.100 67.076 C 184.485 67.176,185.115 67.176,185.500 67.076 C 185.885 66.975,185.570 66.893,184.800 66.893 C 184.030 66.893,183.715 66.975,184.100 67.076 M330.493 180.000 C 330.493 180.770,330.575 181.085,330.676 180.700 C 330.776 180.315,330.776 179.685,330.676 179.300 C 330.575 178.915,330.493 179.230,330.493 180.000 M187.905 329.883 C 188.402 329.979,189.122 329.975,189.505 329.875 C 189.887 329.775,189.480 329.696,188.600 329.701 C 187.720 329.705,187.407 329.787,187.905 329.883 M210.500 329.876 C 210.885 329.976,211.515 329.976,211.900 329.876 C 212.285 329.775,211.970 329.693,211.200 329.693 C 210.430 329.693,210.115 329.775,210.500 329.876 M196.520 330.298 C 198.455 330.372,201.515 330.371,203.320 330.297 C 205.124 330.223,203.540 330.163,199.800 330.164 C 196.060 330.164,194.584 330.225,196.520 330.298 " stroke="none" fill="#999999" fill-rule="evenodd"></path><path id="path4" d="M314.962 44.100 L 314.200 45.000 315.075 44.261 C 315.568 43.844,316.162 43.653,316.437 43.823 C 316.747 44.015,316.820 43.956,316.638 43.662 C 316.220 42.985,315.816 43.091,314.962 44.100 M81.200 45.400 C 80.228 46.390,79.523 47.200,79.633 47.200 C 79.743 47.200,80.628 46.390,81.600 45.400 C 82.572 44.410,83.277 43.600,83.167 43.600 C 83.057 43.600,82.172 44.410,81.200 45.400 M322.400 49.400 C 324.481 51.490,326.274 53.200,326.384 53.200 C 326.494 53.200,324.881 51.490,322.800 49.400 C 320.719 47.310,318.926 45.600,318.816 45.600 C 318.706 45.600,320.319 47.310,322.400 49.400 M306.585 52.900 L 304.600 55.000 306.700 53.015 C 308.651 51.171,308.983 50.800,308.685 50.800 C 308.622 50.800,307.677 51.745,306.585 52.900 M72.778 54.300 L 71.400 55.800 72.900 54.422 C 74.296 53.138,74.584 52.800,74.278 52.800 C 74.212 52.800,73.537 53.475,72.778 54.300 M93.600 53.725 C 93.600 53.794,94.185 54.379,94.900 55.025 L 96.200 56.200 95.025 54.900 C 93.930 53.688,93.600 53.416,93.600 53.725 M330.400 57.000 C 331.146 57.770,331.847 58.400,331.957 58.400 C 332.067 58.400,331.546 57.770,330.800 57.000 C 330.054 56.230,329.353 55.600,329.243 55.600 C 329.133 55.600,329.654 56.230,330.400 57.000 M297.578 62.300 L 296.200 63.800 297.700 62.422 C 299.096 61.138,299.384 60.800,299.078 60.800 C 299.012 60.800,298.337 61.475,297.578 62.300 M63.785 63.700 L 61.800 65.800 63.900 63.815 C 65.851 61.971,66.183 61.600,65.885 61.600 C 65.822 61.600,64.877 62.545,63.785 63.700 M103.800 63.600 C 104.883 64.700,105.860 65.600,105.970 65.600 C 106.080 65.600,105.283 64.700,104.200 63.600 C 103.117 62.500,102.140 61.600,102.030 61.600 C 101.920 61.600,102.717 62.500,103.800 63.600 M338.000 64.125 C 338.000 64.194,338.585 64.779,339.300 65.425 L 340.600 66.600 339.425 65.300 C 338.330 64.088,338.000 63.816,338.000 64.125 M112.400 71.800 C 113.595 73.010,114.663 74.000,114.773 74.000 C 114.883 74.000,113.995 73.010,112.800 71.800 C 111.605 70.590,110.537 69.600,110.427 69.600 C 110.317 69.600,111.205 70.590,112.400 71.800 M54.778 73.100 L 53.400 74.600 54.900 73.222 C 56.296 71.938,56.584 71.600,56.278 71.600 C 56.212 71.600,55.537 72.275,54.778 73.100 M348.800 74.600 C 349.546 75.370,350.247 76.000,350.357 76.000 C 350.467 76.000,349.946 75.370,349.200 74.600 C 348.454 73.830,347.753 73.200,347.643 73.200 C 347.533 73.200,348.054 73.830,348.800 74.600 M120.200 79.200 C 122.171 81.180,123.873 82.800,123.983 82.800 C 124.093 82.800,122.571 81.180,120.600 79.200 C 118.629 77.220,116.927 75.600,116.817 75.600 C 116.707 75.600,118.229 77.220,120.200 79.200 M351.600 85.400 C 350.628 86.390,349.923 87.200,350.033 87.200 C 350.143 87.200,351.028 86.390,352.000 85.400 C 352.972 84.410,353.677 83.600,353.567 83.600 C 353.457 83.600,352.572 84.410,351.600 85.400 M127.688 86.213 C 128.286 86.843,128.847 87.277,128.935 87.179 C 129.023 87.080,128.533 86.565,127.847 86.034 L 126.600 85.069 127.688 86.213 M52.783 90.900 C 54.441 92.666,54.800 92.984,54.800 92.683 C 54.800 92.619,53.945 91.764,52.900 90.783 L 51.000 89.000 52.783 90.900 M342.575 94.900 L 341.400 96.200 342.700 95.025 C 343.415 94.379,344.000 93.794,344.000 93.725 C 344.000 93.416,343.670 93.688,342.575 94.900 M61.583 99.300 C 63.241 101.066,63.600 101.384,63.600 101.083 C 63.600 101.019,62.745 100.164,61.700 99.183 L 59.800 97.400 61.583 99.300 M333.785 104.100 L 331.800 106.200 333.900 104.215 C 335.851 102.371,336.183 102.000,335.885 102.000 C 335.822 102.000,334.877 102.945,333.785 104.100 M71.200 108.600 C 71.946 109.370,72.647 110.000,72.757 110.000 C 72.867 110.000,72.346 109.370,71.600 108.600 C 70.854 107.830,70.153 107.200,70.043 107.200 C 69.933 107.200,70.454 107.830,71.200 108.600 M327.200 111.000 C 325.561 112.650,324.310 114.000,324.420 114.000 C 324.530 114.000,325.961 112.650,327.600 111.000 C 329.239 109.350,330.490 108.000,330.380 108.000 C 330.270 108.000,328.839 109.350,327.200 111.000 M194.800 117.023 C 195.130 117.094,198.730 117.216,202.800 117.295 C 206.870 117.373,209.390 117.307,208.400 117.148 C 206.685 116.873,193.548 116.752,194.800 117.023 M191.905 117.483 C 192.402 117.579,193.122 117.575,193.505 117.475 C 193.887 117.375,193.480 117.296,192.600 117.301 C 191.720 117.305,191.407 117.387,191.905 117.483 M186.400 118.000 L 185.400 118.320 186.400 118.313 C 186.950 118.309,187.940 118.168,188.600 118.000 L 189.800 117.695 188.600 117.687 C 187.940 117.683,186.950 117.824,186.400 118.000 M213.000 118.000 C 213.660 118.168,214.560 118.314,215.000 118.325 L 215.800 118.344 215.000 118.000 C 214.560 117.811,213.660 117.665,213.000 117.675 L 211.800 117.695 213.000 118.000 M182.600 118.800 L 181.800 119.144 182.600 119.144 C 183.040 119.144,183.760 118.989,184.200 118.800 L 185.000 118.456 184.200 118.456 C 183.760 118.456,183.040 118.611,182.600 118.800 M217.400 118.800 C 217.840 118.989,218.560 119.138,219.000 119.132 C 219.643 119.123,219.604 119.057,218.800 118.800 C 217.432 118.362,216.381 118.362,217.400 118.800 M178.856 119.659 C 178.117 119.872,177.590 120.123,177.685 120.218 C 177.780 120.313,178.654 120.140,179.629 119.835 C 181.618 119.211,180.945 119.058,178.856 119.659 M220.600 119.600 C 221.040 119.789,221.760 119.938,222.200 119.932 C 222.843 119.923,222.804 119.857,222.000 119.600 C 220.632 119.162,219.581 119.162,220.600 119.600 M223.600 120.341 C 223.930 120.534,224.740 120.809,225.400 120.952 C 226.168 121.118,226.384 121.084,226.000 120.859 C 225.670 120.666,224.860 120.391,224.200 120.248 C 223.432 120.082,223.216 120.116,223.600 120.341 M175.200 120.818 C 174.762 121.115,174.924 121.152,175.800 120.956 C 177.271 120.627,177.590 120.398,176.567 120.406 C 176.145 120.409,175.530 120.595,175.200 120.818 M167.901 123.565 C 167.076 123.950,166.266 124.401,166.101 124.568 C 165.701 124.970,169.291 123.577,169.780 123.140 C 170.380 122.603,169.566 122.787,167.901 123.565 M231.600 122.957 C 231.600 123.157,236.777 125.608,237.145 125.582 C 237.466 125.560,234.627 124.055,232.900 123.333 C 232.185 123.034,231.600 122.865,231.600 122.957 M159.600 127.874 C 155.883 130.094,151.600 133.053,151.600 133.399 C 151.600 133.495,152.752 132.768,154.160 131.784 C 155.568 130.799,158.403 129.007,160.460 127.801 C 162.517 126.595,164.020 125.607,163.800 125.606 C 163.580 125.604,161.690 126.625,159.600 127.874 M237.600 125.738 C 237.600 125.851,238.905 126.674,240.500 127.566 C 242.095 128.458,243.985 129.568,244.700 130.033 C 245.415 130.498,246.000 130.795,246.000 130.692 C 246.000 130.590,245.325 130.063,244.500 129.521 C 242.291 128.071,237.600 125.499,237.600 125.738 M246.400 130.946 C 246.400 131.056,246.940 131.530,247.600 132.000 C 248.260 132.470,248.800 132.764,248.800 132.654 C 248.800 132.544,248.260 132.070,247.600 131.600 C 246.940 131.130,246.400 130.836,246.400 130.946 M250.982 134.488 C 251.872 135.306,252.749 135.981,252.931 135.988 C 253.113 135.995,252.663 135.516,251.931 134.924 C 249.687 133.111,249.283 132.925,250.982 134.488 M148.993 135.244 C 143.087 140.115,133.565 150.606,133.612 152.189 C 133.619 152.415,133.830 152.240,134.082 151.800 C 135.860 148.694,144.601 139.261,149.400 135.269 C 150.500 134.354,151.307 133.604,151.193 133.603 C 151.079 133.601,150.089 134.340,148.993 135.244 M255.860 138.662 C 257.214 139.948,259.374 142.090,260.660 143.423 C 261.947 144.755,262.553 145.295,262.006 144.623 C 260.040 142.205,258.159 140.297,255.800 138.328 L 253.400 136.324 255.860 138.662 M265.771 149.800 C 267.262 151.780,269.191 154.615,270.058 156.100 C 270.926 157.585,271.734 158.800,271.856 158.800 C 272.503 158.800,265.217 147.969,263.772 146.783 C 263.381 146.462,264.281 147.820,265.771 149.800 M174.262 151.100 C 174.160 151.265,175.212 151.400,176.600 151.400 C 177.988 151.400,179.040 151.265,178.938 151.100 C 178.836 150.935,177.784 150.800,176.600 150.800 C 175.416 150.800,174.364 150.935,174.262 151.100 M170.900 152.842 C 169.745 153.515,168.800 154.146,168.800 154.243 C 168.800 154.445,170.695 153.496,172.548 152.366 C 174.621 151.102,173.162 151.523,170.900 152.842 M182.200 153.238 C 187.485 156.302,188.599 156.906,188.200 156.485 C 187.678 155.935,180.139 151.598,179.721 151.607 C 179.545 151.611,180.660 152.345,182.200 153.238 M131.853 154.391 C 130.721 156.102,130.425 157.118,131.443 155.800 C 132.182 154.844,133.285 152.800,133.063 152.800 C 132.977 152.800,132.432 153.516,131.853 154.391 M167.000 155.033 C 166.560 155.367,164.715 156.450,162.900 157.441 C 161.085 158.431,159.600 159.329,159.600 159.435 C 159.600 159.661,160.209 159.348,164.900 156.714 C 166.825 155.633,168.400 154.671,168.400 154.575 C 168.400 154.234,167.789 154.434,167.000 155.033 M129.896 157.710 C 128.670 159.581,124.676 167.879,125.333 167.192 C 125.587 166.926,130.708 156.800,130.589 156.800 C 130.535 156.800,130.224 157.210,129.896 157.710 M189.000 157.090 C 189.220 157.298,190.300 157.959,191.400 158.559 C 192.500 159.159,193.040 159.355,192.600 158.994 C 191.705 158.259,188.373 156.497,189.000 157.090 M157.096 160.758 C 154.660 162.187,154.119 162.744,156.200 161.680 C 157.745 160.891,159.610 159.618,159.200 159.633 C 159.090 159.637,158.143 160.143,157.096 160.758 M195.200 160.549 C 195.200 160.667,197.086 161.866,199.391 163.213 C 201.696 164.561,204.036 166.203,204.591 166.862 C 205.146 167.522,205.600 167.903,205.600 167.709 C 205.600 167.066,203.035 164.941,200.400 163.401 C 198.970 162.565,197.215 161.533,196.500 161.108 C 195.785 160.683,195.200 160.431,195.200 160.549 M151.400 164.002 C 148.810 165.453,146.807 167.272,146.802 168.178 C 146.801 168.385,147.244 167.953,147.787 167.217 C 148.330 166.481,150.040 165.180,151.587 164.326 C 153.134 163.472,154.400 162.689,154.400 162.586 C 154.400 162.317,154.455 162.291,151.400 164.002 M179.829 164.381 C 181.117 165.031,182.223 165.510,182.287 165.446 C 182.476 165.257,178.539 163.200,177.990 163.200 C 177.713 163.200,178.541 163.732,179.829 164.381 M171.100 164.827 C 170.275 165.263,169.600 165.708,169.600 165.818 C 169.600 165.927,170.320 165.649,171.200 165.200 C 172.080 164.751,172.800 164.297,172.800 164.192 C 172.800 163.930,172.797 163.931,171.100 164.827 M167.600 166.833 L 166.600 167.648 167.900 167.014 C 168.615 166.665,169.200 166.294,169.200 166.190 C 169.200 165.792,168.563 166.048,167.600 166.833 M186.600 167.890 C 186.820 168.098,187.900 168.759,189.000 169.359 C 190.100 169.959,190.640 170.155,190.200 169.794 C 189.305 169.059,185.973 167.297,186.600 167.890 M146.582 184.000 C 146.582 192.470,146.635 195.935,146.699 191.700 C 146.764 187.465,146.764 180.535,146.699 176.300 C 146.635 172.065,146.582 175.530,146.582 184.000 M161.200 170.436 C 160.536 170.979,160.469 171.115,161.000 170.840 C 162.305 170.166,163.028 169.612,162.600 169.615 C 162.380 169.617,161.750 169.986,161.200 170.436 M206.086 174.462 L 206.000 179.524 204.200 180.579 C 203.210 181.159,202.400 181.731,202.400 181.849 C 202.400 182.099,205.151 180.503,205.913 179.811 C 206.291 179.468,206.393 178.043,206.299 174.373 L 206.173 169.400 206.086 174.462 M191.800 171.020 C 193.242 172.093,193.790 172.616,194.517 173.615 C 195.207 174.562,195.207 174.549,194.517 173.262 C 193.831 171.981,192.051 170.386,191.338 170.413 C 191.152 170.420,191.360 170.693,191.800 171.020 M277.350 171.415 C 277.480 171.753,277.876 173.026,278.230 174.244 C 278.584 175.463,278.950 176.383,279.043 176.291 C 279.266 176.067,277.634 170.800,277.341 170.800 C 277.216 170.800,277.221 171.077,277.350 171.415 M158.655 172.255 C 158.075 172.835,157.600 173.495,157.600 173.721 C 157.600 173.948,157.645 174.057,157.700 173.965 C 157.755 173.872,158.329 173.212,158.975 172.498 C 160.383 170.942,160.146 170.763,158.655 172.255 M123.029 173.029 C 122.881 173.615,122.838 174.172,122.932 174.266 C 123.027 174.360,123.224 173.958,123.371 173.371 C 123.519 172.785,123.562 172.228,123.468 172.134 C 123.373 172.040,123.176 172.442,123.029 173.029 M157.043 175.033 C 156.696 175.938,156.754 192.108,157.106 192.662 C 157.268 192.916,157.400 188.911,157.400 183.762 C 157.400 178.613,157.374 174.400,157.343 174.400 C 157.311 174.400,157.176 174.685,157.043 175.033 M121.873 176.870 C 121.247 179.090,120.669 182.094,121.001 181.400 C 121.364 180.643,122.755 175.022,122.615 174.881 C 122.537 174.804,122.204 175.699,121.873 176.870 M195.286 179.913 C 195.216 184.252,195.307 185.266,195.783 185.449 C 196.311 185.652,202.130 182.397,201.810 182.077 C 201.735 182.002,200.475 182.698,199.010 183.623 C 195.678 185.727,195.654 185.700,195.500 179.593 L 195.373 174.600 195.286 179.913 M279.256 177.600 C 279.256 177.930,279.411 178.560,279.600 179.000 C 279.817 179.504,279.944 179.578,279.944 179.200 C 279.944 178.870,279.789 178.240,279.600 177.800 C 279.383 177.296,279.256 177.222,279.256 177.600 M223.400 178.800 C 222.836 179.042,223.308 179.144,225.000 179.144 C 226.692 179.144,227.164 179.042,226.600 178.800 C 226.160 178.611,225.440 178.456,225.000 178.456 C 224.560 178.456,223.840 178.611,223.400 178.800 M231.981 181.806 C 234.478 183.240,236.583 184.350,236.659 184.274 C 236.837 184.096,228.297 179.200,227.808 179.200 C 227.606 179.200,229.484 180.373,231.981 181.806 M218.200 181.452 C 215.142 183.264,214.327 184.082,217.101 182.556 C 219.122 181.443,221.215 180.011,220.800 180.024 C 220.690 180.027,219.520 180.670,218.200 181.452 M280.075 181.000 C 280.086 181.440,280.232 182.340,280.400 183.000 L 280.705 184.200 280.725 183.000 C 280.735 182.340,280.589 181.440,280.400 181.000 L 280.056 180.200 280.075 181.000 M120.200 184.000 C 120.046 184.910,120.011 185.744,120.121 185.854 C 120.231 185.964,120.446 185.310,120.600 184.400 C 120.754 183.490,120.789 182.656,120.679 182.546 C 120.569 182.436,120.354 183.090,120.200 184.000 M212.696 184.758 C 210.260 186.187,209.719 186.744,211.800 185.680 C 213.345 184.891,215.210 183.618,214.800 183.633 C 214.690 183.637,213.743 184.143,212.696 184.758 M281.094 186.800 C 281.214 188.230,281.377 189.475,281.456 189.567 C 281.735 189.889,281.516 186.188,281.198 185.200 C 281.005 184.600,280.963 185.240,281.094 186.800 M240.000 186.367 C 240.963 187.152,241.600 187.408,241.600 187.010 C 241.600 186.906,241.015 186.535,240.300 186.186 L 239.000 185.552 240.000 186.367 M206.489 188.366 C 202.298 190.800,201.683 191.415,205.496 189.360 C 208.127 187.943,210.502 186.398,210.000 186.431 C 209.890 186.438,208.310 187.309,206.489 188.366 M242.800 187.964 C 243.350 188.414,243.980 188.783,244.200 188.785 C 244.628 188.788,243.905 188.234,242.600 187.560 C 242.069 187.285,242.136 187.421,242.800 187.964 M119.457 189.500 C 119.140 191.415,119.213 205.418,119.547 206.980 C 119.686 207.629,119.800 203.624,119.800 198.080 C 119.800 192.536,119.779 188.000,119.752 188.000 C 119.726 188.000,119.593 188.675,119.457 189.500 M245.400 189.406 C 246.295 190.141,249.627 191.903,249.000 191.310 C 248.780 191.102,247.700 190.441,246.600 189.841 C 245.500 189.241,244.960 189.045,245.400 189.406 M68.169 198.200 C 68.170 202.820,68.228 204.655,68.299 202.278 C 68.370 199.901,68.369 196.121,68.298 193.878 C 68.227 191.635,68.169 193.580,68.169 198.200 M281.720 192.400 C 281.720 193.610,281.795 194.105,281.887 193.500 C 281.978 192.895,281.978 191.905,281.887 191.300 C 281.795 190.695,281.720 191.190,281.720 192.400 M199.519 192.323 C 198.044 193.151,196.694 193.988,196.519 194.182 C 196.147 194.594,201.615 191.662,202.180 191.146 C 202.871 190.516,202.230 190.799,199.519 192.323 M223.900 191.482 C 224.395 191.578,225.205 191.578,225.700 191.482 C 226.195 191.387,225.790 191.309,224.800 191.309 C 223.810 191.309,223.405 191.387,223.900 191.482 M220.700 192.427 C 219.875 192.863,219.200 193.308,219.200 193.418 C 219.200 193.596,222.359 192.119,222.767 191.751 C 223.227 191.334,222.025 191.728,220.700 192.427 M249.600 191.760 C 249.600 191.873,250.432 192.454,251.450 193.050 C 254.742 194.980,254.781 195.196,254.789 211.400 C 254.797 228.323,254.763 228.491,250.800 231.323 C 250.250 231.716,250.070 231.912,250.400 231.760 C 254.998 229.633,255.182 228.863,255.182 211.800 C 255.182 194.187,255.382 194.969,250.100 191.848 C 249.825 191.686,249.600 191.646,249.600 191.760 M228.800 192.584 C 228.800 192.694,229.520 193.151,230.400 193.600 C 231.280 194.049,232.000 194.326,232.000 194.216 C 232.000 194.106,231.280 193.649,230.400 193.200 C 229.520 192.751,228.800 192.474,228.800 192.584 M157.600 193.747 C 157.600 194.358,158.913 195.981,159.928 196.624 C 160.776 197.162,160.666 196.940,159.400 195.558 C 158.520 194.598,157.755 193.735,157.700 193.639 C 157.645 193.544,157.600 193.593,157.600 193.747 M217.500 194.229 C 216.895 194.557,216.400 194.910,216.400 195.013 C 216.400 195.399,217.032 195.157,218.000 194.400 C 219.189 193.470,219.011 193.409,217.500 194.229 M193.733 195.526 C 191.287 197.102,191.094 197.489,193.400 196.193 C 195.616 194.947,196.372 194.386,195.780 194.426 C 195.571 194.440,194.650 194.935,193.733 195.526 M232.600 194.690 C 232.820 194.898,233.900 195.559,235.000 196.159 C 236.100 196.759,236.640 196.955,236.200 196.594 C 235.305 195.859,231.973 194.097,232.600 194.690 M213.700 196.412 C 212.545 197.074,211.600 197.710,211.600 197.825 C 211.600 198.043,215.121 196.114,215.780 195.534 C 216.481 194.918,215.815 195.199,213.700 196.412 M282.148 199.200 C 282.148 201.510,282.214 202.455,282.295 201.300 C 282.376 200.145,282.376 198.255,282.295 197.100 C 282.214 195.945,282.148 196.890,282.148 199.200 M331.737 198.200 C 331.739 199.960,331.809 200.630,331.893 199.689 C 331.978 198.749,331.977 197.309,331.891 196.489 C 331.805 195.670,331.736 196.440,331.737 198.200 M161.200 197.390 C 161.200 197.494,161.785 197.865,162.500 198.214 L 163.800 198.848 162.800 198.033 C 161.837 197.248,161.200 196.992,161.200 197.390 M237.233 197.341 C 237.768 197.796,241.200 199.642,241.200 199.476 C 241.200 199.231,237.775 197.200,237.362 197.200 C 237.200 197.200,237.142 197.264,237.233 197.341 M205.119 201.348 C 200.325 204.217,197.448 206.130,199.800 204.885 C 201.287 204.097,210.903 198.431,211.119 198.214 C 211.880 197.453,209.888 198.493,205.119 201.348 M147.133 200.670 C 147.605 201.545,149.541 203.406,149.732 203.168 C 149.806 203.076,149.163 202.311,148.303 201.470 C 147.443 200.628,146.917 200.268,147.133 200.670 M166.000 200.190 C 166.000 200.294,166.585 200.665,167.300 201.014 L 168.600 201.648 167.600 200.833 C 166.637 200.048,166.000 199.792,166.000 200.190 M184.500 201.026 C 183.565 201.587,182.800 202.140,182.800 202.255 C 182.800 202.471,185.499 200.938,186.180 200.336 C 186.867 199.728,186.227 199.991,184.500 201.026 M243.050 201.782 C 243.700 202.806,243.818 203.971,243.938 210.529 C 244.152 222.234,243.972 222.700,237.942 226.086 C 235.089 227.689,232.146 229.632,233.400 229.085 C 234.994 228.390,241.811 224.152,242.593 223.370 C 244.978 220.986,245.284 203.428,242.980 201.244 C 242.419 200.712,242.431 200.806,243.050 201.782 M168.800 201.779 C 168.800 201.889,169.340 202.259,170.000 202.600 C 170.660 202.941,171.200 203.131,171.200 203.021 C 171.200 202.911,170.660 202.541,170.000 202.200 C 169.340 201.859,168.800 201.669,168.800 201.779 M180.700 203.227 C 179.875 203.663,179.200 204.108,179.200 204.218 C 179.200 204.327,179.920 204.049,180.800 203.600 C 181.680 203.151,182.400 202.697,182.400 202.592 C 182.400 202.330,182.397 202.331,180.700 203.227 M151.000 203.809 C 151.959 204.592,155.172 206.263,154.600 205.681 C 154.380 205.457,153.300 204.797,152.200 204.215 C 151.100 203.632,150.560 203.450,151.000 203.809 M172.182 203.784 C 173.663 204.966,176.561 205.472,178.193 204.834 C 178.699 204.636,178.122 204.531,176.593 204.543 C 175.082 204.554,173.684 204.303,172.800 203.861 C 171.731 203.326,171.585 203.308,172.182 203.784 M281.709 205.600 C 281.709 206.590,281.787 206.995,281.882 206.500 C 281.978 206.005,281.978 205.195,281.882 204.700 C 281.787 204.205,281.709 204.610,281.709 205.600 M155.200 206.179 C 155.200 206.289,155.740 206.659,156.400 207.000 C 157.060 207.341,157.600 207.531,157.600 207.421 C 157.600 207.311,157.060 206.941,156.400 206.600 C 155.740 206.259,155.200 206.069,155.200 206.179 M194.506 207.674 C 192.914 208.593,191.672 209.406,191.747 209.481 C 191.880 209.613,197.021 206.713,197.495 206.238 C 198.012 205.721,197.279 206.073,194.506 207.674 M281.267 208.850 C 281.230 209.648,281.111 210.907,281.001 211.650 L 280.803 213.000 281.223 211.660 C 281.454 210.923,281.574 209.663,281.489 208.860 L 281.334 207.400 281.267 208.850 M160.000 208.979 C 160.000 209.089,160.540 209.459,161.200 209.800 C 161.860 210.141,162.400 210.331,162.400 210.221 C 162.400 210.111,161.860 209.741,161.200 209.400 C 160.540 209.059,160.000 208.869,160.000 208.979 M189.096 210.758 C 186.660 212.187,186.119 212.744,188.200 211.680 C 189.745 210.891,191.610 209.618,191.200 209.633 C 191.090 209.637,190.143 210.143,189.096 210.758 M120.087 210.800 C 120.083 211.350,120.224 212.250,120.400 212.800 C 120.831 214.144,120.831 212.692,120.400 211.000 C 120.126 209.922,120.094 209.902,120.087 210.800 M163.000 210.690 C 163.220 210.898,164.300 211.559,165.400 212.159 C 166.500 212.759,167.040 212.955,166.600 212.594 C 165.705 211.859,162.373 210.097,163.000 210.690 M202.696 211.558 C 200.260 212.987,199.719 213.544,201.800 212.480 C 203.345 211.691,205.210 210.418,204.800 210.433 C 204.690 210.437,203.743 210.943,202.696 211.558 M205.353 215.000 C 205.353 217.640,205.418 218.668,205.497 217.284 C 205.575 215.901,205.574 213.741,205.495 212.484 C 205.416 211.228,205.352 212.360,205.353 215.000 M185.100 213.029 C 183.605 213.840,183.696 214.178,185.200 213.400 C 185.860 213.059,186.400 212.694,186.400 212.590 C 186.400 212.332,186.357 212.347,185.100 213.029 M167.800 213.490 C 168.020 213.698,169.100 214.359,170.200 214.959 C 171.300 215.559,171.840 215.755,171.400 215.394 C 170.505 214.659,167.173 212.897,167.800 213.490 M197.600 214.543 L 195.400 215.855 195.289 221.326 C 195.184 226.463,195.647 229.200,196.621 229.200 C 196.731 229.200,196.546 228.669,196.210 228.020 C 195.752 227.134,195.600 225.500,195.600 221.458 L 195.600 216.076 197.800 214.835 C 199.010 214.152,200.000 213.505,200.000 213.397 C 200.000 213.112,200.003 213.110,197.600 214.543 M280.449 213.800 C 280.416 214.240,280.296 215.050,280.183 215.600 L 279.977 216.600 280.406 215.619 C 280.642 215.079,280.761 214.269,280.672 213.819 C 280.513 213.021,280.507 213.021,280.449 213.800 M181.000 215.393 C 179.680 216.153,178.738 216.781,178.906 216.788 C 179.282 216.803,183.600 214.387,183.600 214.162 C 183.600 213.903,183.520 213.941,181.000 215.393 M120.880 215.000 C 120.880 215.440,121.024 216.250,121.200 216.800 C 121.454 217.592,121.520 217.633,121.520 217.000 C 121.520 216.560,121.376 215.750,121.200 215.200 C 120.946 214.408,120.880 214.367,120.880 215.000 M175.305 217.087 C 175.914 217.179,176.814 217.177,177.305 217.082 C 177.797 216.987,177.300 216.911,176.200 216.914 C 175.100 216.917,174.697 216.995,175.305 217.087 M279.400 218.400 C 279.248 219.091,279.214 219.747,279.324 219.857 C 279.434 219.967,279.648 219.491,279.800 218.800 C 279.952 218.109,279.986 217.453,279.876 217.343 C 279.766 217.233,279.552 217.709,279.400 218.400 M121.668 218.400 C 121.688 219.439,122.318 221.146,122.332 220.200 C 122.338 219.760,122.189 219.040,122.000 218.600 C 121.789 218.110,121.661 218.032,121.668 218.400 M205.630 220.340 C 205.544 221.878,208.488 225.600,209.792 225.600 C 209.966 225.600,209.589 225.200,208.954 224.711 C 207.520 223.606,206.736 222.580,206.130 221.014 C 205.872 220.346,205.647 220.043,205.630 220.340 M278.673 220.953 C 278.523 221.345,278.411 221.966,278.425 222.333 C 278.442 222.775,278.581 222.674,278.837 222.034 C 279.049 221.503,279.161 220.882,279.085 220.654 C 279.009 220.427,278.824 220.561,278.673 220.953 M122.806 222.633 C 122.809 223.055,122.995 223.670,123.218 224.000 C 123.515 224.438,123.552 224.276,123.356 223.400 C 123.027 221.929,122.798 221.610,122.806 222.633 M211.000 226.206 C 211.895 226.941,215.227 228.703,214.600 228.110 C 214.380 227.902,213.300 227.241,212.200 226.641 C 211.100 226.041,210.560 225.845,211.000 226.206 M125.667 230.420 C 125.901 231.092,126.167 231.567,126.257 231.476 C 126.456 231.278,125.701 229.200,125.431 229.200 C 125.327 229.200,125.433 229.749,125.667 230.420 M216.800 229.344 C 216.800 229.636,221.220 232.113,221.407 231.926 C 221.495 231.838,220.494 231.177,219.183 230.456 C 217.873 229.735,216.800 229.235,216.800 229.344 M230.500 230.412 C 229.345 231.074,228.400 231.706,228.400 231.816 C 228.400 232.078,231.171 230.639,232.200 229.844 C 233.450 228.877,232.793 229.097,230.500 230.412 M198.000 230.579 C 198.000 230.689,198.540 231.059,199.200 231.400 C 199.860 231.741,200.400 231.931,200.400 231.821 C 200.400 231.711,199.860 231.341,199.200 231.000 C 198.540 230.659,198.000 230.469,198.000 230.579 M201.600 232.764 C 202.150 233.214,202.780 233.583,203.000 233.585 C 203.428 233.588,202.705 233.034,201.400 232.360 C 200.869 232.085,200.936 232.221,201.600 232.764 M222.341 232.501 C 222.543 232.703,223.133 232.801,223.654 232.719 C 224.455 232.593,224.398 232.537,223.287 232.352 C 222.493 232.221,222.119 232.279,222.341 232.501 M226.200 232.400 C 225.093 232.682,225.077 232.709,226.000 232.747 C 226.550 232.769,227.270 232.613,227.600 232.400 C 228.281 231.960,227.929 231.960,226.200 232.400 M247.300 233.212 C 246.145 233.874,245.200 234.510,245.200 234.625 C 245.200 234.843,248.721 232.914,249.380 232.334 C 250.081 231.718,249.415 231.999,247.300 233.212 M205.600 234.979 C 205.600 235.089,206.140 235.459,206.800 235.800 C 207.460 236.141,208.000 236.331,208.000 236.221 C 208.000 236.111,207.460 235.741,206.800 235.400 C 206.140 235.059,205.600 234.869,205.600 234.979 M128.000 235.406 C 128.000 235.734,130.458 240.000,130.647 240.000 C 130.740 240.000,130.255 238.920,129.568 237.600 C 128.439 235.431,128.000 234.817,128.000 235.406 M210.800 238.020 C 212.187 238.961,212.978 239.235,212.000 238.436 C 211.450 237.986,210.820 237.617,210.600 237.615 C 210.380 237.613,210.470 237.796,210.800 238.020 M270.775 239.500 C 269.508 241.634,266.091 246.682,264.481 248.800 C 263.139 250.564,263.138 250.572,264.385 249.200 C 266.650 246.708,272.454 238.000,271.849 238.000 C 271.748 238.000,271.264 238.675,270.775 239.500 M237.100 239.029 C 235.605 239.840,235.696 240.178,237.200 239.400 C 237.860 239.059,238.400 238.694,238.400 238.590 C 238.400 238.332,238.357 238.347,237.100 239.029 M213.400 239.484 C 213.620 239.709,215.060 240.575,216.600 241.409 C 218.140 242.243,219.220 242.741,219.000 242.516 C 218.780 242.291,217.340 241.425,215.800 240.591 C 214.260 239.757,213.180 239.259,213.400 239.484 M233.300 241.242 C 232.145 241.915,231.200 242.558,231.200 242.671 C 231.200 242.893,234.757 240.915,235.380 240.347 C 236.058 239.728,235.442 239.993,233.300 241.242 M133.043 243.930 C 133.459 244.662,134.303 245.832,134.917 246.530 C 135.724 247.448,135.621 247.190,134.546 245.600 C 132.738 242.926,132.015 242.123,133.043 243.930 M220.400 243.567 C 221.363 244.352,222.000 244.608,222.000 244.210 C 222.000 244.106,221.415 243.735,220.700 243.386 L 219.400 242.752 220.400 243.567 M228.629 243.862 C 227.024 244.697,226.260 244.854,224.512 244.709 C 223.313 244.610,222.594 244.676,222.883 244.860 C 224.258 245.732,230.800 244.190,230.800 242.993 C 230.800 242.728,230.842 242.712,228.629 243.862 M136.850 249.200 C 138.050 251.028,148.193 261.190,150.000 262.374 C 150.794 262.895,150.361 262.374,149.000 261.171 C 145.902 258.433,139.837 252.360,137.644 249.800 C 136.496 248.460,136.234 248.262,136.850 249.200 M258.000 255.769 C 254.367 259.536,253.969 260.046,256.108 258.192 C 258.648 255.990,263.068 251.254,262.746 251.079 C 262.666 251.036,260.530 253.146,258.000 255.769 M251.000 262.135 C 250.120 262.860,247.960 264.422,246.200 265.604 C 242.647 267.991,241.694 268.752,243.200 267.997 C 244.640 267.276,251.736 262.201,252.366 261.441 C 253.170 260.473,252.770 260.676,251.000 262.135 M152.670 264.283 C 153.368 264.897,154.538 265.741,155.270 266.157 C 157.077 267.185,156.274 266.462,153.600 264.654 C 152.010 263.579,151.752 263.476,152.670 264.283 M158.600 268.206 C 159.495 268.941,162.827 270.703,162.200 270.110 C 161.980 269.902,160.900 269.241,159.800 268.641 C 158.700 268.041,158.160 267.845,158.600 268.206 M234.922 272.016 C 233.999 272.449,232.759 272.987,232.167 273.213 C 231.574 273.438,231.180 273.713,231.290 273.823 C 231.505 274.038,236.800 271.693,236.800 271.384 C 236.800 271.133,236.817 271.128,234.922 272.016 M81.781 275.300 L 80.200 277.000 81.900 275.419 C 83.481 273.948,83.784 273.600,83.481 273.600 C 83.416 273.600,82.651 274.365,81.781 275.300 M173.844 275.382 C 174.528 275.698,175.608 276.059,176.244 276.184 C 177.233 276.379,177.198 276.333,176.000 275.863 C 173.840 275.016,172.313 274.676,173.844 275.382 M226.000 275.600 C 224.790 276.011,224.070 276.356,224.400 276.368 C 225.109 276.392,227.865 275.468,228.259 275.074 C 228.618 274.716,228.574 274.726,226.000 275.600 M316.800 276.525 C 316.800 276.594,317.385 277.179,318.100 277.825 L 319.400 279.000 318.225 277.700 C 317.130 276.488,316.800 276.216,316.800 276.525 M179.600 277.200 C 179.930 277.413,180.470 277.588,180.800 277.588 C 181.333 277.588,181.333 277.545,180.800 277.200 C 180.470 276.987,179.930 276.812,179.600 276.812 C 179.067 276.812,179.067 276.855,179.600 277.200 M220.600 277.200 C 220.096 277.417,220.022 277.544,220.400 277.544 C 220.730 277.544,221.360 277.389,221.800 277.200 C 222.304 276.983,222.378 276.856,222.000 276.856 C 221.670 276.856,221.040 277.011,220.600 277.200 M182.800 278.000 C 183.130 278.213,183.850 278.373,184.400 278.354 L 185.400 278.320 184.400 278.000 C 182.858 277.506,182.036 277.506,182.800 278.000 M216.800 278.000 L 215.800 278.320 216.800 278.354 C 217.350 278.373,218.070 278.213,218.400 278.000 C 219.164 277.506,218.342 277.506,216.800 278.000 M186.800 278.793 C 187.788 279.116,191.089 279.335,190.767 279.056 C 190.675 278.976,189.520 278.811,188.200 278.688 C 186.709 278.549,186.179 278.589,186.800 278.793 M212.000 278.800 L 210.200 279.080 211.800 279.100 C 212.680 279.111,213.850 278.976,214.400 278.800 C 215.663 278.395,214.602 278.395,212.000 278.800 M192.300 279.482 C 192.795 279.578,193.605 279.578,194.100 279.482 C 194.595 279.387,194.190 279.309,193.200 279.309 C 192.210 279.309,191.805 279.387,192.300 279.482 M207.505 279.483 C 208.002 279.579,208.722 279.575,209.105 279.475 C 209.487 279.375,209.080 279.296,208.200 279.301 C 207.320 279.305,207.007 279.387,207.505 279.483 M197.682 279.896 C 199.158 279.973,201.678 279.973,203.282 279.897 C 204.887 279.821,203.680 279.758,200.600 279.758 C 197.520 279.757,196.207 279.819,197.682 279.896 M327.583 286.900 C 328.564 287.945,329.419 288.800,329.483 288.800 C 329.784 288.800,329.466 288.441,327.700 286.783 L 325.800 285.000 327.583 286.900 M334.600 293.600 C 336.350 295.360,337.871 296.800,337.981 296.800 C 338.091 296.800,336.750 295.360,335.000 293.600 C 333.250 291.840,331.729 290.400,331.619 290.400 C 331.509 290.400,332.850 291.840,334.600 293.600 M55.588 302.700 L 53.000 305.400 55.700 302.812 C 57.185 301.388,58.400 300.173,58.400 300.112 C 58.400 299.817,57.993 300.192,55.588 302.700 M47.192 311.500 L 43.400 315.400 47.300 311.608 C 49.445 309.522,51.200 307.767,51.200 307.708 C 51.200 307.418,50.714 307.878,47.192 311.500 M274.800 312.525 C 274.800 312.594,275.385 313.179,276.100 313.825 L 277.400 315.000 276.225 313.700 C 275.130 312.488,274.800 312.216,274.800 312.525 M117.385 317.700 L 115.400 319.800 117.500 317.815 C 118.655 316.723,119.600 315.778,119.600 315.715 C 119.600 315.417,119.229 315.749,117.385 317.700 M355.781 317.300 L 354.200 319.000 355.900 317.419 C 356.835 316.549,357.600 315.784,357.600 315.719 C 357.600 315.416,357.252 315.719,355.781 317.300 M285.400 322.800 C 286.259 323.680,287.052 324.400,287.162 324.400 C 287.272 324.400,286.659 323.680,285.800 322.800 C 284.941 321.920,284.148 321.200,284.038 321.200 C 283.928 321.200,284.541 321.920,285.400 322.800 M350.175 323.300 L 349.000 324.600 350.300 323.425 C 351.015 322.779,351.600 322.194,351.600 322.125 C 351.600 321.816,351.270 322.088,350.175 323.300 M46.400 322.510 C 46.400 322.571,47.795 323.966,49.500 325.610 L 52.600 328.600 49.610 325.500 C 46.833 322.621,46.400 322.217,46.400 322.510 M109.588 325.900 L 107.000 328.600 109.700 326.012 C 112.208 323.607,112.583 323.200,112.288 323.200 C 112.227 323.200,111.012 324.415,109.588 325.900 M215.300 329.076 C 215.685 329.176,216.315 329.176,216.700 329.076 C 217.085 328.975,216.770 328.893,216.000 328.893 C 215.230 328.893,214.915 328.975,215.300 329.076 M56.200 332.000 C 57.059 332.880,57.852 333.600,57.962 333.600 C 58.072 333.600,57.459 332.880,56.600 332.000 C 55.741 331.120,54.948 330.400,54.838 330.400 C 54.728 330.400,55.341 331.120,56.200 332.000 M102.786 333.100 L 100.600 335.400 102.900 333.214 C 105.037 331.182,105.383 330.800,105.086 330.800 C 105.024 330.800,103.989 331.835,102.786 333.100 M294.000 330.925 C 294.000 330.994,294.585 331.579,295.300 332.225 L 296.600 333.400 295.425 332.100 C 294.330 330.888,294.000 330.616,294.000 330.925 M66.200 341.600 C 67.059 342.480,67.852 343.200,67.962 343.200 C 68.072 343.200,67.459 342.480,66.600 341.600 C 65.741 340.720,64.948 340.000,64.838 340.000 C 64.728 340.000,65.341 340.720,66.200 341.600 M94.575 341.700 L 93.400 343.000 94.700 341.825 C 95.912 340.730,96.184 340.400,95.875 340.400 C 95.806 340.400,95.221 340.985,94.575 341.700 M331.775 342.500 L 330.600 343.800 331.900 342.625 C 332.615 341.979,333.200 341.394,333.200 341.325 C 333.200 341.016,332.870 341.288,331.775 342.500 M311.600 347.800 C 313.460 349.670,315.072 351.200,315.182 351.200 C 315.292 351.200,313.860 349.670,312.000 347.800 C 310.140 345.930,308.528 344.400,308.418 344.400 C 308.308 344.400,309.740 345.930,311.600 347.800 M74.783 349.700 C 75.764 350.745,76.619 351.600,76.683 351.600 C 76.984 351.600,76.666 351.241,74.900 349.583 L 73.000 347.800 74.783 349.700 M322.400 352.200 C 321.428 353.190,320.723 354.000,320.833 354.000 C 320.943 354.000,321.828 353.190,322.800 352.200 C 323.772 351.210,324.477 350.400,324.367 350.400 C 324.257 350.400,323.372 351.210,322.400 352.200 " stroke="none" fill="#c4acf4" fill-rule="evenodd"></path></g></svg>
