<?xml version="1.0" encoding="UTF-8" standalone="no" ?>
<!DOCTYPE svg PUBLIC "-//W3C//DTD SVG 1.1//EN" "http://www.w3.org/Graphics/SVG/1.1/DTD/svg11.dtd">
<svg xmlns="http://www.w3.org/2000/svg" xmlns:xlink="http://www.w3.org/1999/xlink" version="1.1" width="248" height="265" viewBox="0 0 248 265" xml:space="preserve">
<desc>Created with Fabric.js 3.6.3</desc>
<defs>
</defs>
<g transform="matrix(0.13 0 0 -0.13 123.76 133.41)"  >
<path style="stroke: none; stroke-width: 2; stroke-dasharray: none; stroke-linecap: butt; stroke-dashoffset: 0; stroke-linejoin: miter; stroke-miterlimit: 4; fill: rgb(0,0,0); fill-rule: nonzero; opacity: 1;" vector-effect="non-scaling-stroke"  transform=" translate(-1498, -1669.78)" d="M 1529 2674 l -246 -13 l -152 -82 c -83 -45 -150 -84 -147 -86 c 2 -3 67 29 143 70 c 76 42 139 74 141 72 c 2 -2 -4 -38 -13 -80 l -17 -76 l -146 2 l -145 2 l -120 -121 c -84 -85 -118 -126 -113 -137 c 3 -9 2 -14 -2 -11 c -5 3 -31 -41 -59 -97 c -51 -102 -51 -103 -79 -313 l -28 -211 l 28 -129 l 28 -129 l 119 -187 l 120 -186 l 157 -108 c 200 -138 270 -166 475 -190 c 140 -17 151 -17 259 0 c 107 17 122 22 272 99 l 159 82 l 144 185 c 78 101 143 188 143 192 c 0 3 -104 -52 -232 -123 l -232 -129 l -148 0 l -148 0 l -188 94 l -187 94 l -114 181 c -63 99 -117 179 -119 176 c -2 -2 45 -82 106 -177 c 61 -95 106 -174 99 -175 c -7 -1 -48 -4 -93 -6 l -81 -3 l -18 150 c -10 83 -19 169 -20 191 c -1 22 -5 47 -8 55 c -2 8 -10 56 -16 105 c -9 78 -8 106 9 205 c 11 63 20 126 21 140 c 0 17 60 101 182 254 l 182 229 l 239 98 c 131 54 241 100 244 103 c 8 8 -119 5 -399 -10 z m 278 -23 c -43 -14 -75 -30 -70 -34 c 4 -5 1 -6 -7 -2 c -8 3 -69 -13 -134 -35 l -119 -40 l -80 51 c -44 27 -81 48 -84 46 c -2 -3 30 -26 72 -51 c 44 -28 75 -54 75 -64 c 0 -12 2 -14 8 -4 c 8 12 212 85 219 79 c 3 -4 -217 -92 -229 -92 c -3 0 -10 -3 -14 -7 c -4 -5 -30 -8 -58 -7 l -51 1 l 60 16 c 33 8 55 17 49 19 c -7 2 -52 -7 -100 -21 c -49 -14 -89 -24 -90 -23 c -1 1 5 37 14 79 c 15 74 18 78 47 84 c 26 4 456 30 540 32 c 20 0 5 -8 -48 -27 z m -401 -179 c 7 -4 -49 -83 -150 -211 c -89 -112 -162 -197 -163 -190 c -2 8 3 70 10 138 l 12 124 l 143 65 c 78 36 141 67 138 69 c -2 2 -59 -21 -126 -51 c -68 -31 -125 -56 -129 -56 c -3 0 19 25 49 55 c 57 58 47 54 180 63 c 14 1 30 -2 36 -6 z m -233 -64 l -62 -61 l -33 26 c -18 14 -51 42 -73 61 l -40 35 l 135 1 l 135 0 l -62 -62 z m -130 -22 l 58 -49 l -107 -48 c -59 -27 -109 -47 -112 -45 c -2 3 10 47 27 98 c 18 51 34 99 37 107 c 5 15 5 15 97 -63 z m -144 -45 c -23 -66 -28 -96 -21 -103 c 8 -8 39 2 109 34 c 54 26 102 43 106 38 c 9 -8 -12 -246 -23 -269 c -8 -16 -218 -103 -224 -93 c -3 6 20 245 26 272 c 2 7 -13 13 -37 16 c -109 10 -108 5 -4 110 c 51 51 94 92 96 90 c 1 -1 -11 -44 -28 -95 z m -81 -117 c 29 -5 40 -10 33 -18 c -20 -24 -132 -228 -128 -233 c 3 -2 33 46 67 107 c 34 60 63 110 64 110 c 1 0 -4 -51 -11 -112 c -6 -62 -12 -120 -13 -128 c 0 -12 -14 -15 -60 -15 l -59 0 l 4 115 c 2 63 7 132 11 153 c 5 33 9 38 28 33 c 11 -3 40 -8 64 -12 z m -114 -158 l -7 -127 l -41 38 l -41 38 l 39 -42 l 39 -42 l -57 -131 c -32 -72 -56 -134 -53 -136 c 2 -3 30 55 62 128 l 57 133 l 57 -3 c 31 -2 59 -7 63 -10 c 7 -8 -25 -398 -33 -407 c -3 -3 -56 16 -117 42 c -98 41 -110 49 -98 63 c 125 146 246 292 246 295 c 0 13 -17 -5 -126 -135 c -111 -132 -134 -155 -134 -129 c 0 5 5 7 12 3 c 8 -5 9 -2 4 12 c -4 10 3 93 14 184 c 20 154 25 172 68 262 c 25 54 47 96 49 94 c 2 -2 0 -60 -3 -130 z m 352 -153 c -29 -174 -15 -165 -114 -74 c -48 44 -88 78 -90 77 c -3 -4 93 -97 145 -141 l 33 -26 l -111 -121 c -70 -78 -106 -125 -100 -131 c 6 -6 49 0 121 18 c 61 15 112 26 114 24 c 3 -5 46 -363 43 -365 c -4 -4 -272 288 -284 309 c -11 20 -13 18 -33 -27 c -11 -26 -23 -59 -26 -72 c -7 -25 -52 -44 -110 -44 l -30 0 l -25 115 c -14 63 -24 117 -22 119 c 3 2 52 -17 109 -42 c 90 -39 107 -43 118 -31 c 9 9 19 81 30 214 c 9 110 21 204 26 209 c 10 10 214 94 219 90 c 2 -2 -4 -47 -13 -101 z m -11 -296 l 7 -63 l -96 -23 c -53 -12 -106 -25 -118 -29 c -15 -4 11 31 82 111 c 118 131 112 131 125 4 z m -181 -356 c 31 -96 53 -178 50 -183 c -6 -10 38 -73 144 -207 c 41 -52 68 -90 61 -85 c -25 14 -244 166 -252 174 c -5 4 10 18 32 31 c 22 12 39 24 37 27 c -3 2 -23 -6 -45 -19 c -23 -12 -42 -21 -44 -18 c -8 9 -78 291 -74 295 c 3 3 33 -40 67 -96 c 34 -56 64 -99 67 -96 c 2 2 -26 52 -63 111 c -49 77 -70 103 -77 93 c -6 -9 -7 -8 -3 6 c 4 10 2 24 -4 31 c -8 10 -5 31 12 79 c 17 49 25 62 30 49 c 4 -10 32 -96 62 -192 z m 111 25 c 98 -105 125 -140 114 -146 c -8 -5 -40 -29 -73 -54 c -32 -25 -62 -46 -66 -46 c -4 0 -13 19 -19 43 c -6 23 -35 118 -65 211 c -39 120 -50 164 -37 150 c 10 -10 76 -81 146 -158 z m -226 17 c 25 -98 73 -277 78 -292 c 3 -9 -14 16 -39 54 c -24 39 -72 113 -106 165 l -61 95 l 52 6 c 29 3 55 6 59 7 c 4 1 12 -15 17 -35 z m 1554 -261 c -144 -186 -133 -177 -133 -112 l 0 55 l 86 70 c 80 66 140 122 89 85 c -11 -8 -56 -44 -101 -81 c -76 -63 -85 -68 -150 -78 l -69 -10 l 68 3 l 67 4 l 0 -59 c 0 -39 -4 -61 -12 -63 c -27 -8 -228 -31 -226 -26 c 2 3 18 33 37 67 l 35 61 l 74 -50 c 40 -27 76 -48 78 -45 c 2 2 -28 26 -68 52 c -68 45 -71 49 -53 62 c 43 31 370 210 377 206 c 4 -2 -40 -66 -99 -141 z m -843 32 c 80 -41 137 -73 127 -70 c -96 29 -431 137 -435 141 c -3 3 33 5 79 4 l 84 0 l 145 -75 z m -251 -60 c 56 -69 101 -128 99 -130 c -4 -3 -337 133 -346 141 c -2 2 139 114 144 115 c 1 0 47 -57 103 -126 z m 164 45 c 121 -38 227 -67 236 -64 c 8 3 12 3 8 -2 c -5 -4 7 -12 25 -19 c 30 -10 34 -15 42 -67 c 5 -32 7 -59 5 -62 c -3 -2 -76 1 -163 7 l -158 11 l 151 46 c 84 25 147 47 142 49 c -6 2 -80 -18 -166 -44 c -85 -26 -156 -45 -158 -43 c -20 28 -168 212 -191 238 c -22 24 -26 32 -12 27 c 10 -3 118 -38 239 -77 z m -50 -204 c 8 -11 -2 -136 -12 -148 c -4 -4 -41 7 -82 24 c -72 30 -76 33 -164 147 c -49 64 -91 119 -93 123 c -4 10 342 -134 351 -146 z m 621 37 l -37 -68 l -94 64 c -52 35 -96 62 -99 59 c -3 -2 36 -31 85 -63 c 50 -32 90 -58 88 -59 c -3 -3 -181 15 -183 18 c -1 1 -4 27 -7 59 l -5 56 l 145 1 l 145 2 l -38 -69 z m -346 -57 l 92 -7 l 0 -32 c 0 -20 -12 -48 -31 -74 c -17 -24 -29 -45 -27 -47 c 3 -3 19 15 37 40 l 32 45 l 59 -30 c 33 -17 63 -30 67 -30 c 4 1 -19 15 -52 32 l -60 31 l 70 18 c 39 10 80 21 93 24 l 23 6 l -21 -41 c -12 -23 -20 -46 -18 -52 c 2 -5 14 13 28 41 c 25 54 27 55 115 66 c 28 3 66 8 85 11 c 26 4 2 -12 -90 -61 c -69 -37 -132 -68 -140 -71 c -65 -19 -156 -35 -215 -38 c -57 -3 -301 20 -313 30 c -2 1 -1 36 3 76 l 7 73 l 81 -1 c 45 -1 124 -5 175 -9 z m 265 -19 c 5 -1 -30 -11 -77 -22 l -86 -21 l 0 27 l 0 27 l 78 -4 c 42 -3 81 -5 85 -7 z" stroke-linecap="round" />
</g>
</svg>