<?xml version="1.0" encoding="utf-8"?>
<svg viewBox="154.904 139.876 150 127" xmlns="http://www.w3.org/2000/svg" xmlns:xlink="http://www.w3.org/1999/xlink" xmlns:bx="https://boxy-svg.com">
  <defs>
    <linearGradient id="gradient-6-0" gradientUnits="userSpaceOnUse" x1="800" y1="130" x2="800" y2="1400" xlink:href="#gradient-6"/>
    <linearGradient id="gradient-6" bx:pinned="true">
      <stop offset="0" style="stop-color: rgb(255, 0, 0);"/>
      <stop offset="0.153" style="stop-color: rgb(254, 161, 0);"/>
      <stop offset="0.301" style="stop-color: rgb(238, 255, 0);"/>
      <stop offset="0.449" style="stop-color: rgb(0, 254, 0);"/>
      <stop offset="0.546" style="stop-color: rgb(0, 186, 254);"/>
      <stop offset="0.76" style="stop-color: rgb(1, 22, 254);"/>
      <stop offset="0.913" style="stop-color: rgb(150, 3, 255);"/>
    </linearGradient>
  </defs>
  <path d="M279 1363 c-1 -21 0 -55 1 -75 2 -38 2 -38 -39 -38 l-41 0 0 -75 0 -75 -75 0 -75 0 0 -225 0 -225 39 0 c39 0 40 -1 43 -37 l3 -38 73 -3 72 -3 0 -69 0 -69 73 -3 72 -3 3 -37 3 -38 -75 0 -76 0 0 -110 0 -110 110 0 110 0 0 75 0 75 115 0 115 0 0 75 0 75 70 0 70 0 0 -75 0 -75 115 0 115 0 0 -75 0 -75 109 0 109 0 4 73 c2 39 2 89 0 110 l-3 37 -75 0 -75 0 3 38 3 37 73 3 72 3 0 69 0 69 73 3 72 3 3 38 c3 36 4 37 43 37 l39 0 0 225 0 225 -75 0 -75 0 0 75 0 75 -40 0 -40 0 0 75 0 75 -110 0 -110 0 0 -40 0 -40 -110 0 -109 0 -3 -72 -3 -73 -75 0 -75 0 -3 73 -3 72 -109 0 -110 0 0 40 0 40 -110 0 -110 0 -1 -37z m151 -78 c0 -34 -1 -35 -40 -35 -39 0 -40 1 -40 35 0 34 1 35 40 35 39 0 40 -1 40 -35z m820 0 c0 -34 -1 -35 -40 -35 -39 0 -40 1 -40 35 0 34 1 35 40 35 39 0 40 -1 40 -35z m-600 -110 l0 -75 150 0 150 0 0 75 0 75 35 0 35 0 0 -75 0 -75 40 0 40 0 0 -41 c0 -41 0 -41 35 -37 35 4 35 4 35 -34 0 -38 0 -38 40 -38 l40 0 0 -115 0 -115 75 0 75 0 0 -35 0 -35 -75 0 -75 0 0 -75 0 -75 -75 0 -75 0 0 -75 0 -75 -75 0 -75 0 0 75 0 75 -150 0 -150 0 0 -75 0 -75 -75 0 -75 0 0 75 0 75 -75 0 -75 0 0 75 0 75 -75 0 -75 0 0 35 0 35 75 0 75 0 0 115 0 115 40 0 c40 0 40 0 40 38 0 38 0 38 35 34 35 -4 35 -4 35 37 l0 41 40 0 40 0 0 75 0 75 35 0 35 0 0 -75z m-220 -40 c0 -34 -1 -35 -40 -35 -39 0 -40 -1 -40 -35 0 -33 -2 -35 -35 -35 l-35 0 0 70 0 70 75 0 75 0 0 -35z m890 -35 l0 -70 -35 0 c-33 0 -35 2 -35 35 0 34 -1 35 -40 35 -39 0 -40 1 -40 35 l0 35 75 0 75 0 0 -70z m-1120 -222 l0 -148 -35 0 -35 0 0 148 0 147 35 0 35 0 0 -147z m1270 0 l0 -148 -35 0 -35 0 0 148 0 147 35 0 35 0 0 -147z m-1050 -638 c0 -39 -1 -40 -35 -40 -34 0 -35 1 -35 40 0 39 1 40 35 40 34 0 35 -1 35 -40z m830 0 c0 -39 -1 -40 -35 -40 -34 0 -35 1 -35 40 0 39 1 40 35 40 34 0 35 -1 35 -40z" style="fill: url(#gradient-6-0);" transform="matrix(0.1, 0, 0, -0.1, 149.903534, 279.87619)"/>
</svg>