<svg id="svg" xmlns="http://www.w3.org/2000/svg" xmlns:xlink="http://www.w3.org/1999/xlink" width="400" height="491.2280701754386" viewBox="0, 0, 400,491.2280701754386"><g id="svgg"><path id="path0" d="M217.043 1.541 C 61.348 21.599,-36.587 175.671,12.514 323.308 C 59.074 463.306,218.776 531.149,351.729 467.410 C 375.248 456.134,397.922 440.605,399.479 434.704 C 400.643 430.291,399.796 428.404,391.393 416.693 C 365.458 380.547,349.670 335.869,343.513 281.203 C 342.207 269.610,342.210 222.941,343.517 211.028 C 349.702 154.658,364.669 112.498,392.452 73.183 C 404.116 56.678,403.094 54.037,379.405 39.452 C 347.976 20.102,320.296 9.189,287.719 3.307 C 268.844 -0.101,236.134 -0.919,217.043 1.541 M265.154 21.581 C 296.467 23.568,332.205 35.205,361.905 53.084 C 375.398 61.207,375.184 60.721,369.268 69.777 C 346.398 104.784,331.954 145.066,324.593 194.371 C 321.320 216.294,320.913 269.982,323.854 291.835 C 330.689 342.616,345.280 384.440,368.979 421.185 C 375.467 431.246,375.277 429.824,370.551 432.905 C 248.805 512.290,89.179 461.681,35.944 326.817 C -6.445 219.428,42.149 95.189,146.617 43.866 C 183.761 25.617,220.349 18.739,265.154 21.581 M99.374 171.949 C 73.934 176.526,57.269 213.698,67.198 243.721 C 85.087 297.819,148.518 282.488,148.538 224.060 C 148.549 191.294,125.811 167.193,99.374 171.949 M112.247 193.292 C 130.088 201.302,133.567 236.781,117.920 251.145 C 107.860 260.379,96.843 257.325,89.341 243.221 C 76.937 219.901,93.090 184.691,112.247 193.292 M103.625 300.247 C 80.120 304.420,79.878 346.681,103.213 372.026 C 110.384 379.815,115.525 382.768,124.398 384.196 C 138.444 386.457,149.805 371.923,148.692 353.116 C 146.925 323.274,124.185 296.597,103.625 300.247 M112.068 322.431 C 122.613 331.472,129.593 347.636,128.103 359.562 C 127.396 365.218,125.345 364.959,118.814 358.392 C 111.075 350.611,106.767 339.592,106.767 327.578 C 106.767 319.993,107.920 318.874,112.068 322.431 " stroke="none" fill="#000000" fill-rule="evenodd"></path></g></svg>