<svg id="svg" version="1.1" xmlns="http://www.w3.org/2000/svg" xmlns:xlink="http://www.w3.org/1999/xlink" width="400" height="427.53036437246965" viewBox="0, 0, 400,427.53036437246965"><g id="svgg"><path id="path0" d="M181.377 2.306 L 153.036 4.139 127.935 18.045 C 94.452 36.594,92.330 37.859,92.318 39.271 C 92.312 39.939,90.586 40.486,88.483 40.486 C 84.194 40.486,35.628 88.757,35.628 93.019 C 35.628 94.320,33.404 98.679,30.686 102.706 C 15.004 125.943,10.666 141.423,3.144 200.993 L -0.634 230.914 5.342 258.238 C 12.021 288.782,8.472 281.685,47.487 342.510 L 60.990 363.563 88.390 382.543 C 143.688 420.851,168.424 428.660,229.589 427.121 C 265.739 426.212,269.421 425.199,309.094 405.246 L 340.455 389.474 359.413 365.182 C 396.433 317.747,403.381 307.692,399.144 307.692 C 397.393 307.692,377.071 318.443,340.564 338.683 L 302.990 359.514 272.151 359.514 L 241.313 359.514 202.027 339.891 L 162.742 320.268 143.314 289.590 C 132.629 272.717,121.074 255.192,117.636 250.646 C 106.317 235.676,103.714 207.366,110.002 167.611 C 114.627 138.366,112.912 141.332,158.609 83.522 L 189.797 44.066 238.335 24.150 C 265.031 13.197,288.096 3.305,289.590 2.169 C 293.101 -0.500,223.386 -0.412,181.377 2.306 M263.051 6.396 C 258.539 8.002,253.438 10.112,251.715 11.084 C 249.993 12.056,243.077 14.331,236.347 16.139 C 229.617 17.947,217.890 21.529,210.287 24.099 L 196.464 28.771 181.633 19.649 C 167.566 10.996,167.032 10.466,171.256 9.354 C 175.704 8.184,245.502 3.752,262.348 3.571 L 271.255 3.476 263.051 6.396 M174.432 21.201 C 194.223 34.918,196.302 38.775,183.806 38.591 C 181.202 38.553,181.337 38.328,184.495 37.446 C 189.768 35.972,190.810 32.388,185.965 32.390 C 183.887 32.390,175.371 34.259,167.041 36.542 C 149.223 41.426,149.819 41.701,152.177 29.683 C 156.377 8.278,155.998 8.423,174.432 21.201 M148.228 28.326 L 145.336 42.105 120.036 42.064 L 94.737 42.024 122.240 27.597 C 137.366 19.662,150.052 13.480,150.431 13.859 C 150.809 14.237,149.818 20.748,148.228 28.326 M173.144 45.929 C 172.773 46.250,162.996 50.643,151.417 55.689 L 130.364 64.865 138.710 56.494 C 144.669 50.518,148.838 47.780,153.285 46.920 C 159.847 45.652,174.296 44.931,173.144 45.929 M130.420 58.244 L 119.226 69.524 111.840 63.598 C 107.777 60.338,101.719 55.262,98.376 52.317 L 92.298 46.964 116.956 46.964 L 141.614 46.964 130.420 58.244 M171.438 58.429 C 164.415 68.441,133.722 107.120,122.672 119.884 L 116.599 126.899 116.581 121.344 C 116.570 118.289,117.429 106.761,118.489 95.726 L 120.415 75.662 135.107 69.019 C 143.187 65.366,155.992 59.325,163.563 55.596 C 171.134 51.866,177.557 48.763,177.836 48.699 C 178.116 48.635,175.237 53.014,171.438 58.429 M101.189 61.836 C 107.856 67.400,112.750 72.513,112.063 73.200 C 109.697 75.567,74.133 90.867,73.190 89.924 C 71.342 88.076,84.779 50.074,86.982 50.919 C 88.129 51.359,94.522 56.272,101.189 61.836 M73.884 70.747 C 65.046 97.482,68.085 99.902,95.178 87.702 C 114.469 79.016,114.994 79.041,114.925 88.664 C 114.830 101.881,110.676 132.603,108.655 135.039 C 106.893 137.162,68.424 153.846,65.291 153.846 C 63.739 153.846,64.122 146.744,67.255 117.424 C 69.825 93.378,70.068 93.953,56.821 92.752 C 42.857 91.485,43.026 90.644,60.849 72.754 C 79.356 54.178,79.362 54.176,73.884 70.747 M50.528 97.273 C 55.248 98.223,60.002 99.286,61.094 99.636 C 62.395 100.053,60.576 104.505,55.809 112.567 C 46.440 128.415,37.232 146.715,37.301 149.352 C 37.392 152.828,43.339 144.491,52.818 127.603 C 63.787 108.060,63.860 108.106,61.460 133.042 C 59.222 156.290,58.679 157.085,45.035 157.085 L 35.628 157.085 35.666 147.773 C 35.755 126.236,39.118 95.547,41.389 95.547 C 41.695 95.547,45.808 96.323,50.528 97.273 M32.868 128.340 C 31.746 154.992,31.646 155.188,23.251 147.357 L 16.543 141.099 20.167 133.303 C 28.912 114.486,32.663 106.883,33.198 106.883 C 33.514 106.883,33.365 116.538,32.868 128.340 M107.419 157.490 C 104.057 180.623,101.969 189.474,99.873 189.474 C 98.391 189.474,78.616 172.687,67.348 161.864 C 66.476 161.027,67.472 159.796,69.777 158.865 C 71.926 157.996,81.700 153.968,91.498 149.913 C 101.296 145.858,109.376 142.533,109.454 142.525 C 109.532 142.517,108.617 149.251,107.419 157.490 M23.293 152.231 C 30.407 160.105,31.075 155.544,18.512 184.876 C 11.960 200.174,8.150 211.161,8.594 213.482 C 9.037 215.799,8.736 216.671,7.811 215.747 C 5.272 213.208,13.355 145.749,16.199 145.749 C 16.880 145.749,20.072 148.666,23.293 152.231 M51.424 163.282 C 53.185 164.400,14.780 212.146,12.120 212.146 C 11.711 212.146,13.268 207.955,15.579 202.834 C 17.890 197.713,22.800 186.426,26.490 177.754 L 33.198 161.985 41.296 161.989 C 45.749 161.991,50.307 162.573,51.424 163.282 M98.387 197.591 C 98.614 198.048,91.499 206.428,82.576 216.215 C 73.654 226.001,63.995 237.451,61.112 241.659 C 54.625 251.127,53.506 251.286,55.143 242.510 C 55.848 238.725,57.597 223.239,59.028 208.097 C 60.459 192.955,62.076 176.727,62.620 172.034 L 63.611 163.502 80.793 180.132 C 90.244 189.278,98.161 197.135,98.387 197.591 M56.600 187.045 C 53.421 230.930,51.483 246.154,49.078 246.154 C 45.791 246.154,10.910 231.752,8.618 229.448 C 7.151 227.974,11.007 222.475,25.295 205.668 C 35.516 193.644,46.910 180.009,50.615 175.369 C 54.320 170.729,57.499 167.085,57.679 167.272 C 57.860 167.459,57.374 176.356,56.600 187.045 M102.841 212.551 C 103.371 215.445,103.950 222.154,104.129 227.459 L 104.453 237.105 85.209 241.683 C 64.004 246.728,62.337 246.569,68.207 240.064 C 70.409 237.624,77.894 229.251,84.841 221.457 C 98.639 205.977,101.389 204.616,102.841 212.551 M28.276 244.635 C 39.436 249.143,49.210 252.435,49.995 251.950 C 50.781 251.465,49.787 255.245,47.789 260.352 C 45.790 265.458,43.732 270.868,43.217 272.375 C 40.194 281.209,15.753 285.537,14.099 277.531 C 13.570 274.970,11.350 264.676,9.166 254.656 C 6.982 244.636,5.822 236.437,6.589 236.437 C 7.356 236.437,17.115 240.126,28.276 244.635 M106.883 243.730 C 106.883 244.179,108.727 259.596,110.982 277.991 C 113.237 296.385,114.846 312.143,114.557 313.008 C 114.269 313.873,105.603 305.561,95.299 294.537 C 65.234 262.373,57.713 253.485,60.138 252.989 C 61.354 252.740,71.457 250.440,82.591 247.877 C 104.159 242.913,106.883 242.448,106.883 243.730 M137.373 289.732 C 146.433 304.347,153.846 316.823,153.846 317.455 C 153.846 320.162,119.865 322.138,119.816 319.433 C 119.804 318.765,117.988 302.915,115.780 284.211 C 113.572 265.506,111.773 249.474,111.782 248.583 C 111.792 247.692,113.847 250.607,116.350 255.061 C 118.852 259.514,128.313 275.116,137.373 289.732 M65.538 298.703 C 76.178 332.475,76.138 333.272,64.736 314.587 C 59.977 306.787,54.118 298.432,51.716 296.020 C 45.241 289.517,44.367 281.720,48.787 269.900 L 52.460 260.079 54.457 264.974 C 55.555 267.666,60.542 282.844,65.538 298.703 M83.875 289.434 C 105.171 312.616,114.347 323.578,113.181 324.442 C 112.834 324.700,106.385 329.498,98.850 335.106 C 86.691 344.155,85.015 344.963,83.960 342.287 C 82.874 339.533,62.566 273.954,60.458 266.397 C 59.867 264.277,60.100 263.717,61.133 264.777 C 62.001 265.668,72.235 276.763,83.875 289.434 M40.548 288.664 C 42.150 292.283,56.578 345.494,56.102 346.028 C 55.645 346.539,20.251 290.869,19.737 288.832 C 19.402 287.502,21.860 286.619,27.025 286.215 C 31.311 285.879,35.744 285.473,36.877 285.312 C 38.009 285.152,39.662 286.660,40.548 288.664 M64.167 322.180 C 78.149 343.419,81.246 348.459,80.642 348.987 C 79.157 350.288,63.158 357.831,63.158 357.231 C 63.158 356.836,60.243 345.020,56.680 330.974 C 47.824 296.057,47.343 296.622,64.167 322.180 M183.019 336.044 C 194.585 341.840,204.049 346.850,204.049 347.177 C 204.049 347.690,145.971 329.345,139.271 326.715 C 137.935 326.191,142.500 325.704,149.416 325.634 C 161.761 325.508,162.371 325.697,183.019 336.044 M369.192 344.817 C 361.057 355.437,351.938 366.915,348.928 370.323 L 343.455 376.518 343.393 367.611 L 343.332 358.704 353.378 350.607 C 358.903 346.154,367.822 338.684,373.198 334.008 C 378.574 329.332,383.199 325.506,383.477 325.506 C 383.755 325.506,377.326 334.196,369.192 344.817 M136.901 350.646 C 147.366 363.582,155.572 374.523,155.136 374.958 C 154.398 375.697,99.647 353.873,93.234 350.284 C 90.907 348.982,112.468 328.580,117.641 327.188 C 117.769 327.154,126.436 337.710,136.901 350.646 M372.470 327.704 C 372.470 329.075,346.878 349.129,340.939 352.412 C 334.051 356.219,316.891 359.635,319.838 356.612 C 322.570 353.811,372.470 326.403,372.470 327.704 M161.784 339.976 C 178.349 345.214,199.001 351.429,207.676 353.785 C 233.094 360.690,234.119 361.681,219.897 365.603 C 213.407 367.393,199.042 371.510,187.975 374.752 C 176.908 377.994,167.322 380.082,166.673 379.392 C 165.645 378.299,132.230 336.752,127.323 330.466 C 125.843 328.570,126.077 328.353,128.585 329.295 C 130.279 329.931,145.218 334.737,161.784 339.976 M109.780 386.640 C 117.285 395.880,116.503 395.562,94.420 380.382 C 67.278 361.725,68.117 362.815,76.409 356.987 L 83.245 352.182 93.717 365.970 C 99.477 373.553,106.705 382.854,109.780 386.640 M124.547 369.512 C 167.039 387.067,165.972 386.012,162.500 407.024 C 159.552 424.869,132.994 409.425,106.243 374.310 C 91.522 354.986,90.214 355.329,124.547 369.512 M327.462 361.536 L 340.589 360.636 339.525 368.398 C 338.940 372.668,338.462 377.515,338.462 379.171 C 338.462 381.731,337.192 381.293,329.960 376.232 C 312.966 364.343,310.875 362.534,312.007 360.703 C 312.821 359.385,313.312 359.370,313.739 360.650 C 314.141 361.856,318.593 362.144,327.462 361.536 M239.167 377.318 L 240.127 385.425 229.627 385.425 C 211.675 385.425,184.405 383.364,185.757 382.109 C 186.465 381.451,195.425 378.367,205.668 375.255 C 215.911 372.142,226.842 368.533,229.960 367.233 C 236.814 364.376,237.757 365.408,239.167 377.318 M246.154 366.649 C 246.154 367.901,253.259 373.797,261.943 379.752 C 277.145 390.175,277.492 390.545,271.255 389.688 C 267.692 389.199,260.301 388.341,254.831 387.783 C 245.345 386.814,244.838 386.539,243.899 381.845 C 242.377 374.233,242.735 364.372,244.534 364.372 C 245.425 364.372,246.154 365.397,246.154 366.649 M299.595 365.182 C 299.595 365.627,296.588 371.368,292.912 377.940 L 286.230 389.888 275.981 382.724 C 270.345 378.784,261.553 373.043,256.443 369.966 L 247.154 364.372 273.375 364.372 C 287.796 364.372,299.595 364.737,299.595 365.182 M319.346 374.904 C 326.201 379.355,331.849 383.455,331.897 384.017 C 332.012 385.368,295.001 389.467,293.773 388.240 C 292.604 387.071,304.408 365.651,305.849 366.328 C 306.418 366.594,312.491 370.454,319.346 374.904 M226.316 391.374 L 239.676 392.381 239.676 397.480 C 239.676 400.526,237.411 406.135,234.050 411.411 C 230.955 416.269,228.404 421.190,228.382 422.348 C 228.350 423.930,226.027 424.234,219.028 423.574 C 161.346 418.133,166.802 419.747,166.802 408.124 C 166.802 402.988,167.278 396.403,167.861 393.491 L 168.919 388.196 190.937 389.281 C 203.047 389.878,218.968 390.820,226.316 391.374 M314.170 396.132 C 305.780 400.957,282.209 412.955,281.122 412.955 C 279.914 412.955,288.190 398.835,290.541 396.883 C 292.687 395.102,307.099 392.468,316.599 392.120 C 321.304 391.947,321.228 392.074,314.170 396.132 M269.636 394.387 C 268.745 394.723,262.368 396.413,255.466 398.143 L 242.915 401.289 242.915 397.405 C 242.915 393.594,243.175 393.525,257.085 393.650 C 264.879 393.720,270.526 394.052,269.636 394.387 M279.373 403.748 C 278.026 406.973,276.923 411.008,276.923 412.715 C 276.923 415.996,271.112 418.583,269.522 416.010 C 269.012 415.185,264.456 412.416,259.398 409.857 L 250.202 405.205 256.680 403.501 C 284.763 396.115,282.573 396.091,279.373 403.748 M254.461 413.061 C 266.380 419.078,266.516 418.906,247.630 421.721 C 229.444 424.433,230.615 425.122,237.532 415.784 C 244.281 406.672,242.402 406.974,254.461 413.061 " stroke="none" fill="#000000" fill-rule="evenodd"></path></g></svg>